<svg width="71" height="13" viewBox="0 0 71 13" fill="none" xmlns="http://www.w3.org/2000/svg">
<path d="M48.32 11.628C48.32 11.596 48.312 11.556 48.296 11.508C48.28 11.46 48.264 11.42 48.248 11.388C48.232 11.34 48.184 11.252 48.104 11.124C48.008 10.996 47.944 10.916 47.912 10.884C47.928 10.868 47.952 10.844 47.984 10.812C48.016 10.764 48.048 10.732 48.08 10.716C48.112 10.716 48.2 10.724 48.344 10.74C48.472 10.74 48.552 10.732 48.584 10.716C48.632 10.716 48.744 10.7 48.92 10.668C49.096 10.62 49.208 10.58 49.256 10.548C49.336 10.516 49.464 10.46 49.64 10.38C49.8 10.3 49.896 10.244 49.928 10.212C49.944 10.196 49.992 10.156 50.072 10.092C50.136 10.012 50.216 9.932 50.312 9.852C50.408 9.756 50.496 9.668 50.576 9.588C50.656 9.508 50.712 9.444 50.744 9.396C50.808 9.316 50.904 9.196 51.032 9.036C51.16 8.86 51.232 8.756 51.248 8.724C51.264 8.708 51.296 8.612 51.344 8.436C51.376 8.26 51.4 8.132 51.416 8.052C51.416 8.02 51.424 7.956 51.44 7.86C51.456 7.764 51.48 7.668 51.512 7.572C51.528 7.46 51.544 7.356 51.56 7.26C51.576 7.164 51.584 7.092 51.584 7.044H52.256H52.928C52.96 7.044 53.072 7.076 53.264 7.14C53.44 7.188 53.544 7.212 53.576 7.212C53.592 7.228 53.632 7.236 53.696 7.236H53.84H53.984C54.048 7.236 54.08 7.228 54.08 7.212C54.112 7.212 54.224 7.188 54.416 7.14C54.608 7.092 54.72 7.06 54.752 7.044C54.848 7.044 55.064 7.036 55.4 7.02C55.736 7.004 56.112 6.988 56.528 6.972C56.928 6.956 57.328 6.94 57.728 6.924C58.112 6.908 58.4 6.9 58.592 6.9C58.608 6.884 58.744 6.876 59 6.876H59.528H60.056C60.28 6.876 60.4 6.884 60.416 6.9C60.464 6.9 60.6 6.908 60.824 6.924C61.032 6.94 61.256 6.956 61.496 6.972C61.736 6.988 61.968 7.004 62.192 7.02C62.4 7.036 62.528 7.044 62.576 7.044C62.608 7.06 62.696 7.068 62.84 7.068C62.968 7.052 63.048 7.044 63.08 7.044C63.144 7.06 63.264 7.092 63.44 7.14C63.6 7.172 63.704 7.196 63.752 7.212L63.92 7.38C63.872 7.38 63.792 7.388 63.68 7.404C63.568 7.42 63.448 7.444 63.32 7.476C63.192 7.492 63.08 7.508 62.984 7.524C62.872 7.54 62.792 7.548 62.744 7.548L62.576 7.716C62.624 7.748 62.736 7.788 62.912 7.836C63.088 7.868 63.2 7.884 63.248 7.884C63.264 7.884 63.32 7.892 63.416 7.908C63.496 7.908 63.552 7.908 63.584 7.908C63.632 7.908 63.696 7.908 63.776 7.908C63.856 7.892 63.904 7.884 63.92 7.884C63.952 7.884 64.04 7.86 64.184 7.812C64.312 7.764 64.392 7.732 64.424 7.716H64.496H64.592C64.464 7.892 64.296 8.004 64.088 8.052C63.864 8.1 63.696 8.212 63.584 8.388C63.632 8.404 63.744 8.428 63.92 8.46C64.096 8.492 64.208 8.524 64.256 8.556C64.32 8.588 64.44 8.644 64.616 8.724C64.792 8.804 64.896 8.86 64.928 8.892C64.944 8.908 64.984 8.948 65.048 9.012C65.112 9.076 65.184 9.148 65.264 9.228C65.328 9.308 65.392 9.38 65.456 9.444C65.52 9.508 65.56 9.548 65.576 9.564C65.624 9.596 65.712 9.66 65.84 9.756C65.968 9.836 66.112 9.932 66.272 10.044C66.432 10.14 66.592 10.236 66.752 10.332C66.896 10.428 67.008 10.5 67.088 10.548C67.104 10.564 67.144 10.588 67.208 10.62C67.272 10.652 67.344 10.692 67.424 10.74C67.488 10.772 67.56 10.804 67.64 10.836C67.704 10.868 67.744 10.884 67.76 10.884C67.792 10.916 67.872 10.972 68 11.052C68.128 11.132 68.208 11.188 68.24 11.22C68.256 11.236 68.288 11.268 68.336 11.316C68.368 11.364 68.392 11.388 68.408 11.388H68.504H68.576C68.608 11.372 68.672 11.348 68.768 11.316C68.848 11.268 68.896 11.236 68.912 11.22C68.944 11.188 68.984 11.132 69.032 11.052C69.064 10.972 69.08 10.916 69.08 10.884C69.112 10.916 69.168 10.948 69.248 10.98C69.328 11.012 69.384 11.036 69.416 11.052H69.512H69.584C69.6 11.036 69.632 11.012 69.68 10.98C69.712 10.948 69.736 10.916 69.752 10.884V10.14V9.396C69.752 9.364 69.728 9.252 69.68 9.06C69.632 8.868 69.6 8.756 69.584 8.724V8.628V8.556C69.584 8.54 69.608 8.516 69.656 8.484C69.688 8.436 69.72 8.404 69.752 8.388C69.768 8.372 69.824 8.348 69.92 8.316C70.016 8.268 70.072 8.236 70.088 8.22C70.12 8.204 70.176 8.156 70.256 8.076C70.336 7.98 70.392 7.916 70.424 7.884C70.456 7.836 70.52 7.748 70.616 7.62C70.696 7.492 70.744 7.412 70.76 7.38V7.236V7.044C70.76 7.028 70.744 6.98 70.712 6.9C70.68 6.82 70.64 6.732 70.592 6.636C70.544 6.54 70.504 6.452 70.472 6.372C70.44 6.292 70.424 6.244 70.424 6.228C70.408 6.18 70.392 6.108 70.376 6.012C70.344 5.9 70.312 5.78 70.28 5.652C70.232 5.524 70.192 5.404 70.16 5.292C70.128 5.18 70.104 5.1 70.088 5.052C70.024 5.004 69.92 4.94 69.776 4.86C69.616 4.78 69.448 4.692 69.272 4.596C69.096 4.5 68.928 4.42 68.768 4.356C68.608 4.276 68.488 4.228 68.408 4.212H67.76H66.92C66.872 4.228 66.784 4.26 66.656 4.308C66.528 4.34 66.448 4.364 66.416 4.38C66.4 4.38 66.352 4.42 66.272 4.5C66.192 4.564 66.104 4.644 66.008 4.74C65.896 4.82 65.784 4.908 65.672 5.004C65.56 5.1 65.472 5.172 65.408 5.22L65.24 5.388C65.224 5.42 65.2 5.484 65.168 5.58C65.12 5.66 65.088 5.708 65.072 5.724C65.072 5.756 65.08 5.868 65.096 6.06C65.096 6.252 65.088 6.364 65.072 6.396C65.072 6.412 65.056 6.444 65.024 6.492C64.976 6.524 64.944 6.548 64.928 6.564C64.88 6.58 64.776 6.612 64.616 6.66C64.44 6.692 64.32 6.716 64.256 6.732H63.992H63.752L63.416 6.564C63.224 6.564 62.928 6.572 62.528 6.588C62.112 6.588 61.648 6.596 61.136 6.612C60.608 6.628 60.064 6.644 59.504 6.66C58.944 6.66 58.408 6.668 57.896 6.684C57.368 6.7 56.904 6.716 56.504 6.732C56.088 6.732 55.784 6.732 55.592 6.732C55.352 6.732 54.92 6.732 54.296 6.732C53.672 6.716 53.016 6.708 52.328 6.708C51.64 6.708 50.992 6.708 50.384 6.708C49.76 6.692 49.328 6.684 49.088 6.684V6.564H50.816C50.816 6.5 50.792 6.444 50.744 6.396C50.712 6.364 50.64 6.308 50.528 6.228C50.4 6.148 50.304 6.092 50.24 6.06C50.208 6.028 50.128 5.996 50 5.964C49.872 5.916 49.792 5.892 49.76 5.892C49.744 5.892 49.688 5.892 49.592 5.892C49.48 5.876 49.4 5.868 49.352 5.868C49.288 5.868 49.208 5.876 49.112 5.892C49 5.892 48.936 5.892 48.92 5.892C48.856 5.892 48.72 5.916 48.512 5.964C48.304 5.996 48.16 6.028 48.08 6.06C48.064 6.06 48.016 6.084 47.936 6.132C47.84 6.164 47.776 6.196 47.744 6.228C47.712 6.244 47.632 6.3 47.504 6.396C47.36 6.476 47.272 6.532 47.24 6.564C47.208 6.58 47.16 6.612 47.096 6.66C47.016 6.692 46.96 6.716 46.928 6.732C46.816 6.748 46.624 6.772 46.352 6.804C46.08 6.836 45.8 6.876 45.512 6.924C45.208 6.956 44.92 6.988 44.648 7.02C44.376 7.036 44.184 7.044 44.072 7.044C44.056 7.044 43.976 7.052 43.832 7.068C43.672 7.068 43.488 7.068 43.28 7.068H42.656H42.128H41.576H40.88C40.64 7.068 40.432 7.068 40.256 7.068C40.064 7.052 39.952 7.044 39.92 7.044C39.872 7.044 39.76 7.036 39.584 7.02C39.392 7.004 39.184 6.988 38.96 6.972C38.72 6.956 38.488 6.94 38.264 6.924C38.04 6.908 37.872 6.9 37.76 6.9C37.728 6.9 37.648 6.892 37.52 6.876C37.376 6.86 37.232 6.844 37.088 6.828C36.944 6.796 36.808 6.772 36.68 6.756C36.536 6.74 36.448 6.732 36.416 6.732C36.368 6.716 36.256 6.708 36.08 6.708C35.904 6.692 35.792 6.684 35.744 6.684V7.212C35.808 7.212 35.928 7.22 36.104 7.236C36.28 7.236 36.472 7.244 36.68 7.26C36.872 7.276 37.056 7.3 37.232 7.332C37.408 7.348 37.528 7.364 37.592 7.38C37.608 7.38 37.656 7.396 37.736 7.428C37.816 7.46 37.904 7.5 38 7.548C38.096 7.596 38.184 7.636 38.264 7.668C38.344 7.7 38.392 7.716 38.408 7.716C38.424 7.716 38.456 7.724 38.504 7.74C38.536 7.74 38.56 7.74 38.576 7.74C38.608 7.74 38.648 7.74 38.696 7.74C38.728 7.724 38.744 7.716 38.744 7.716C38.856 7.716 38.912 7.66 38.912 7.548H39.752H40.592C40.64 7.548 40.744 7.556 40.904 7.572C41.064 7.588 41.232 7.612 41.408 7.644C41.584 7.66 41.752 7.676 41.912 7.692C42.072 7.708 42.184 7.716 42.248 7.716C42.28 7.732 42.392 7.764 42.584 7.812C42.776 7.86 42.888 7.884 42.92 7.884H43.016H43.088C43.12 7.868 43.176 7.82 43.256 7.74C43.336 7.644 43.392 7.58 43.424 7.548L46.088 7.212L46.256 7.38C46.224 7.46 46.168 7.604 46.088 7.812C46.008 8.02 45.952 8.156 45.92 8.22L45.752 8.724L45.584 8.892H45.512H45.416L43.76 8.052H43.592H43.424C43.392 8.068 43.36 8.1 43.328 8.148C43.28 8.18 43.256 8.204 43.256 8.22C43.304 8.252 43.408 8.3 43.568 8.364C43.728 8.428 43.896 8.492 44.072 8.556C44.248 8.62 44.416 8.684 44.576 8.748C44.736 8.812 44.848 8.86 44.912 8.892C44.992 8.892 45.048 8.948 45.08 9.06V9.132V9.228C45.08 9.26 45.064 9.324 45.032 9.42C45 9.516 44.96 9.62 44.912 9.732C44.864 9.828 44.824 9.924 44.792 10.02C44.76 10.116 44.744 10.18 44.744 10.212V10.38V10.548C44.76 10.596 44.784 10.684 44.816 10.812C44.848 10.94 44.88 11.068 44.912 11.196C44.944 11.324 44.976 11.444 45.008 11.556C45.04 11.652 45.064 11.708 45.08 11.724C45.096 11.756 45.152 11.812 45.248 11.892C45.328 11.972 45.384 12.028 45.416 12.06C45.448 12.06 45.56 12.108 45.752 12.204C45.944 12.3 46.056 12.364 46.088 12.396C46.136 12.396 46.192 12.452 46.256 12.564C46.32 12.676 46.376 12.788 46.424 12.9C46.456 12.9 46.512 12.884 46.592 12.852C46.672 12.804 46.728 12.764 46.76 12.732C46.76 12.716 46.768 12.676 46.784 12.612C46.8 12.532 46.816 12.46 46.832 12.396C46.848 12.316 46.864 12.244 46.88 12.18C46.896 12.116 46.912 12.076 46.928 12.06C46.96 12.028 47.056 11.972 47.216 11.892C47.376 11.796 47.496 11.74 47.576 11.724C47.624 11.708 47.752 11.692 47.96 11.676C48.152 11.644 48.272 11.628 48.32 11.628ZM61.76 9.036V8.892C61.744 8.86 61.696 8.788 61.616 8.676C61.52 8.548 61.456 8.452 61.424 8.388C61.408 8.356 61.384 8.324 61.352 8.292C61.304 8.26 61.272 8.236 61.256 8.22C61.208 8.204 61.136 8.172 61.04 8.124C60.944 8.076 60.84 8.028 60.728 7.98C60.616 7.916 60.52 7.86 60.44 7.812C60.344 7.764 60.28 7.732 60.248 7.716C60.184 7.684 60.072 7.652 59.912 7.62C59.736 7.572 59.624 7.548 59.576 7.548H58.4H57.248C57.232 7.548 57.16 7.572 57.032 7.62C56.904 7.652 56.808 7.684 56.744 7.716C56.728 7.732 56.68 7.764 56.6 7.812C56.504 7.86 56.44 7.884 56.408 7.884C56.344 7.916 56.208 7.956 56 8.004C55.792 8.036 55.656 8.052 55.592 8.052C55.576 8.068 55.568 8.1 55.568 8.148V8.22V8.34C55.568 8.372 55.576 8.388 55.592 8.388C55.624 8.468 55.672 8.58 55.736 8.724C55.8 8.852 55.872 8.988 55.952 9.132C56.016 9.26 56.08 9.388 56.144 9.516C56.192 9.628 56.224 9.7 56.24 9.732C56.272 9.764 56.344 9.836 56.456 9.948C56.568 10.06 56.696 10.188 56.84 10.332C56.968 10.476 57.104 10.62 57.248 10.764C57.392 10.892 57.504 10.988 57.584 11.052C57.6 11.068 57.64 11.1 57.704 11.148C57.768 11.196 57.84 11.244 57.92 11.292C57.984 11.34 58.048 11.396 58.112 11.46C58.176 11.508 58.224 11.54 58.256 11.556L58.592 11.724C58.656 11.756 58.776 11.788 58.952 11.82C59.112 11.852 59.208 11.876 59.24 11.892H59.672H60.08C60.112 11.876 60.192 11.852 60.32 11.82C60.448 11.788 60.536 11.756 60.584 11.724C60.648 11.692 60.744 11.636 60.872 11.556C60.984 11.476 61.056 11.42 61.088 11.388C61.12 11.356 61.176 11.26 61.256 11.1C61.336 10.924 61.392 10.796 61.424 10.716C61.44 10.684 61.464 10.604 61.496 10.476C61.528 10.332 61.568 10.18 61.616 10.02C61.648 9.86 61.68 9.708 61.712 9.564C61.728 9.404 61.744 9.292 61.76 9.228V9.036ZM60.752 10.212C60.832 10.212 60.872 10.268 60.872 10.38C60.872 10.492 60.832 10.548 60.752 10.548C60.672 10.548 60.632 10.492 60.632 10.38C60.632 10.268 60.672 10.212 60.752 10.212ZM62.912 8.388C62.832 8.388 62.792 8.444 62.792 8.556C62.792 8.668 62.832 8.724 62.912 8.724C62.992 8.724 63.032 8.668 63.032 8.556C63.032 8.444 62.992 8.388 62.912 8.388ZM64.76 5.796V5.724L64.592 5.556C64.576 5.556 64.56 5.556 64.544 5.556C64.528 5.54 64.512 5.532 64.496 5.532C64.48 5.532 64.464 5.54 64.448 5.556C64.432 5.556 64.424 5.556 64.424 5.556C64.392 5.588 64.36 5.644 64.328 5.724C64.28 5.804 64.256 5.86 64.256 5.892H63.248C63.28 5.924 63.36 5.988 63.488 6.084C63.616 6.164 63.704 6.212 63.752 6.228C63.768 6.228 63.816 6.236 63.896 6.252C63.976 6.252 64.04 6.252 64.088 6.252C64.136 6.252 64.2 6.252 64.28 6.252C64.36 6.236 64.408 6.228 64.424 6.228L64.76 5.892V5.796ZM60.44 3.228C60.44 3.148 60.44 3.02 60.44 2.844C60.424 2.668 60.416 2.572 60.416 2.556C60.416 2.556 60.408 2.516 60.392 2.436C60.36 2.34 60.328 2.244 60.296 2.148C60.264 2.036 60.232 1.924 60.2 1.812C60.152 1.7 60.112 1.612 60.08 1.548L59.912 1.212C59.88 1.18 59.824 1.124 59.744 1.044C59.664 0.963999 59.608 0.915999 59.576 0.899999C59.528 0.883999 59.424 0.868 59.264 0.852C59.088 0.835999 58.976 0.827999 58.928 0.827999C58.848 0.827999 58.72 0.835999 58.544 0.852C58.368 0.868 58.272 0.883999 58.256 0.899999C58.24 0.899999 58.184 0.939999 58.088 1.02C57.976 1.1 57.848 1.196 57.704 1.308C57.56 1.404 57.416 1.508 57.272 1.62C57.128 1.732 57.008 1.82 56.912 1.884C56.768 2.012 56.648 2.14 56.552 2.268C56.456 2.396 56.352 2.548 56.24 2.724C56.224 2.756 56.2 2.812 56.168 2.892C56.12 2.972 56.088 3.028 56.072 3.06C56.056 3.124 56.032 3.244 56 3.42C55.952 3.58 55.928 3.684 55.928 3.732C55.912 3.764 55.912 3.876 55.928 4.068C55.928 4.244 55.928 4.348 55.928 4.38C55.912 4.412 55.88 4.476 55.832 4.572C55.784 4.652 55.76 4.7 55.76 4.716C55.728 4.764 55.696 4.876 55.664 5.052C55.616 5.228 55.592 5.34 55.592 5.388C55.576 5.388 55.56 5.396 55.544 5.412C55.528 5.412 55.512 5.412 55.496 5.412C55.48 5.412 55.464 5.412 55.448 5.412C55.432 5.396 55.424 5.388 55.424 5.388C55.392 5.356 55.36 5.276 55.328 5.148C55.296 5.004 55.272 4.916 55.256 4.884C55.208 4.82 55.12 4.724 54.992 4.596C54.864 4.468 54.784 4.396 54.752 4.38C54.72 4.38 54.664 4.404 54.584 4.452C54.504 4.484 54.448 4.516 54.416 4.548C54.416 4.548 54.416 4.564 54.416 4.596C54.4 4.612 54.392 4.628 54.392 4.644C54.392 4.66 54.4 4.676 54.416 4.692C54.416 4.708 54.416 4.716 54.416 4.716L54.92 5.22V5.364V5.556C54.904 5.572 54.872 5.628 54.824 5.724C54.776 5.804 54.752 5.86 54.752 5.892C54.752 5.908 54.776 5.94 54.824 5.988C54.856 6.02 54.888 6.044 54.92 6.06H54.992H55.088C55.104 6.044 55.136 6.012 55.184 5.964C55.216 5.916 55.24 5.892 55.256 5.892C55.256 5.892 55.312 5.892 55.424 5.892C55.52 5.876 55.6 5.868 55.664 5.868C55.712 5.868 55.792 5.876 55.904 5.892C56.016 5.892 56.072 5.892 56.072 5.892C56.104 5.892 56.192 5.924 56.336 5.988C56.464 6.036 56.544 6.06 56.576 6.06H57.08H57.584C57.632 6.044 57.744 6.02 57.92 5.988C58.08 5.956 58.192 5.924 58.256 5.892L58.928 5.556C58.96 5.54 59.024 5.508 59.12 5.46C59.2 5.412 59.288 5.356 59.384 5.292C59.48 5.228 59.568 5.172 59.648 5.124C59.712 5.076 59.744 5.052 59.744 5.052C59.776 5.02 59.84 4.964 59.936 4.884C60.016 4.804 60.064 4.748 60.08 4.716C60.128 4.636 60.192 4.492 60.272 4.284C60.352 4.076 60.4 3.948 60.416 3.9C60.416 3.868 60.424 3.772 60.44 3.612C60.44 3.436 60.44 3.308 60.44 3.228ZM56.408 2.892C56.472 2.876 56.504 2.908 56.504 2.988C56.504 3.052 56.472 3.076 56.408 3.06C56.36 3.044 56.336 3.02 56.336 2.988C56.336 2.956 56.36 2.924 56.408 2.892ZM56.576 2.556C56.656 2.556 56.696 2.612 56.696 2.724C56.696 2.836 56.656 2.892 56.576 2.892C56.496 2.892 56.456 2.836 56.456 2.724C56.456 2.612 56.496 2.556 56.576 2.556ZM58.424 1.884C58.408 1.836 58.44 1.812 58.52 1.812C58.584 1.812 58.608 1.836 58.592 1.884C58.576 1.932 58.552 1.956 58.52 1.956C58.488 1.956 58.456 1.932 58.424 1.884ZM57.584 1.884C57.568 1.836 57.6 1.812 57.68 1.812C57.744 1.812 57.768 1.836 57.752 1.884C57.736 1.932 57.712 1.956 57.68 1.956C57.648 1.956 57.616 1.932 57.584 1.884ZM13.0231 11.628C13.0231 11.596 13.0151 11.556 12.9991 11.508C12.9831 11.46 12.9671 11.42 12.9511 11.388C12.9351 11.34 12.8871 11.252 12.8071 11.124C12.7111 10.996 12.6471 10.916 12.6151 10.884C12.6311 10.868 12.6551 10.844 12.6871 10.812C12.7191 10.764 12.7511 10.732 12.7831 10.716C12.8151 10.716 12.9031 10.724 13.0471 10.74C13.1751 10.74 13.2551 10.732 13.2871 10.716C13.3351 10.716 13.4471 10.7 13.6231 10.668C13.7991 10.62 13.9111 10.58 13.9591 10.548C14.0391 10.516 14.1671 10.46 14.3431 10.38C14.5031 10.3 14.5991 10.244 14.6311 10.212C14.6471 10.196 14.6951 10.156 14.7751 10.092C14.8391 10.012 14.9191 9.932 15.0151 9.852C15.1111 9.756 15.1991 9.668 15.2791 9.588C15.3591 9.508 15.4151 9.444 15.4471 9.396C15.5111 9.316 15.6071 9.196 15.7351 9.036C15.8631 8.86 15.9351 8.756 15.9511 8.724C15.9671 8.708 15.9991 8.612 16.0471 8.436C16.0791 8.26 16.1031 8.132 16.1191 8.052C16.1191 8.02 16.1271 7.956 16.1431 7.86C16.1591 7.764 16.1831 7.668 16.2151 7.572C16.2311 7.46 16.2471 7.356 16.2631 7.26C16.2791 7.164 16.2871 7.092 16.2871 7.044H16.9591H17.6311C17.6631 7.044 17.7751 7.076 17.9671 7.14C18.1431 7.188 18.2471 7.212 18.2791 7.212C18.2951 7.228 18.3351 7.236 18.3991 7.236H18.5431H18.6871C18.7511 7.236 18.7831 7.228 18.7831 7.212C18.8151 7.212 18.9271 7.188 19.1191 7.14C19.3111 7.092 19.4231 7.06 19.4551 7.044C19.5511 7.044 19.7671 7.036 20.1031 7.02C20.4391 7.004 20.8151 6.988 21.2311 6.972C21.6311 6.956 22.0311 6.94 22.4311 6.924C22.8151 6.908 23.1031 6.9 23.2951 6.9C23.3111 6.884 23.4471 6.876 23.7031 6.876H24.2311H24.7591C24.9831 6.876 25.1031 6.884 25.1191 6.9C25.1671 6.9 25.3031 6.908 25.5271 6.924C25.7351 6.94 25.9591 6.956 26.1991 6.972C26.4391 6.988 26.6711 7.004 26.8951 7.02C27.1031 7.036 27.2311 7.044 27.2791 7.044C27.3111 7.06 27.3991 7.068 27.5431 7.068C27.6711 7.052 27.7511 7.044 27.7831 7.044C27.8471 7.06 27.9671 7.092 28.1431 7.14C28.3031 7.172 28.4071 7.196 28.4551 7.212L28.6231 7.38C28.5751 7.38 28.4951 7.388 28.3831 7.404C28.2711 7.42 28.1511 7.444 28.0231 7.476C27.8951 7.492 27.7831 7.508 27.6871 7.524C27.5751 7.54 27.4951 7.548 27.4471 7.548L27.2791 7.716C27.3271 7.748 27.4391 7.788 27.6151 7.836C27.7911 7.868 27.9031 7.884 27.9511 7.884C27.9671 7.884 28.0231 7.892 28.1191 7.908C28.1991 7.908 28.2551 7.908 28.2871 7.908C28.3351 7.908 28.3991 7.908 28.4791 7.908C28.5591 7.892 28.6071 7.884 28.6231 7.884C28.6551 7.884 28.7431 7.86 28.8871 7.812C29.0151 7.764 29.0951 7.732 29.1271 7.716H29.1991H29.2951C29.1671 7.892 28.9991 8.004 28.7911 8.052C28.5671 8.1 28.3991 8.212 28.2871 8.388C28.3351 8.404 28.4471 8.428 28.6231 8.46C28.7991 8.492 28.9111 8.524 28.9591 8.556C29.0231 8.588 29.1431 8.644 29.3191 8.724C29.4951 8.804 29.5991 8.86 29.6311 8.892C29.6471 8.908 29.6871 8.948 29.7511 9.012C29.8151 9.076 29.8871 9.148 29.9671 9.228C30.0311 9.308 30.0951 9.38 30.1591 9.444C30.2231 9.508 30.2631 9.548 30.2791 9.564C30.3271 9.596 30.4151 9.66 30.5431 9.756C30.6711 9.836 30.8151 9.932 30.9751 10.044C31.1351 10.14 31.2951 10.236 31.4551 10.332C31.5991 10.428 31.7111 10.5 31.7911 10.548C31.8071 10.564 31.8471 10.588 31.9111 10.62C31.9751 10.652 32.0471 10.692 32.1271 10.74C32.1911 10.772 32.2631 10.804 32.3431 10.836C32.4071 10.868 32.4471 10.884 32.4631 10.884C32.4951 10.916 32.5751 10.972 32.7031 11.052C32.8311 11.132 32.9111 11.188 32.9431 11.22C32.9591 11.236 32.9911 11.268 33.0391 11.316C33.0711 11.364 33.0951 11.388 33.1111 11.388H33.2071H33.2791C33.3111 11.372 33.3751 11.348 33.4711 11.316C33.5511 11.268 33.5991 11.236 33.6151 11.22C33.6471 11.188 33.6871 11.132 33.7351 11.052C33.7671 10.972 33.7831 10.916 33.7831 10.884C33.8151 10.916 33.8711 10.948 33.9511 10.98C34.0311 11.012 34.0871 11.036 34.1191 11.052H34.2151H34.2871C34.3031 11.036 34.3351 11.012 34.3831 10.98C34.4151 10.948 34.4391 10.916 34.4551 10.884V10.14V9.396C34.4551 9.364 34.4311 9.252 34.3831 9.06C34.3351 8.868 34.3031 8.756 34.2871 8.724V8.628V8.556C34.2871 8.54 34.3111 8.516 34.3591 8.484C34.3911 8.436 34.4231 8.404 34.4551 8.388C34.4711 8.372 34.5271 8.348 34.6231 8.316C34.7191 8.268 34.7751 8.236 34.7911 8.22C34.8231 8.204 34.8791 8.156 34.9591 8.076C35.0391 7.98 35.0951 7.916 35.1271 7.884C35.1591 7.836 35.2231 7.748 35.3191 7.62C35.3991 7.492 35.4471 7.412 35.4631 7.38V7.236V7.044C35.4631 7.028 35.4471 6.98 35.4151 6.9C35.3831 6.82 35.3431 6.732 35.2951 6.636C35.2471 6.54 35.2071 6.452 35.1751 6.372C35.1431 6.292 35.1271 6.244 35.1271 6.228C35.1111 6.18 35.0951 6.108 35.0791 6.012C35.0471 5.9 35.0151 5.78 34.9831 5.652C34.9351 5.524 34.8951 5.404 34.8631 5.292C34.8311 5.18 34.8071 5.1 34.7911 5.052C34.7271 5.004 34.6231 4.94 34.4791 4.86C34.3191 4.78 34.1511 4.692 33.9751 4.596C33.7991 4.5 33.6311 4.42 33.4711 4.356C33.3111 4.276 33.1911 4.228 33.1111 4.212H32.4631H31.6231C31.5751 4.228 31.4871 4.26 31.3591 4.308C31.2311 4.34 31.1511 4.364 31.1191 4.38C31.1031 4.38 31.0551 4.42 30.9751 4.5C30.8951 4.564 30.8071 4.644 30.7111 4.74C30.5991 4.82 30.4871 4.908 30.3751 5.004C30.2631 5.1 30.1751 5.172 30.1111 5.22L29.9431 5.388C29.9271 5.42 29.9031 5.484 29.8711 5.58C29.8231 5.66 29.7911 5.708 29.7751 5.724C29.7751 5.756 29.7831 5.868 29.7991 6.06C29.7991 6.252 29.7911 6.364 29.7751 6.396C29.7751 6.412 29.7591 6.444 29.7271 6.492C29.6791 6.524 29.6471 6.548 29.6311 6.564C29.5831 6.58 29.4791 6.612 29.3191 6.66C29.1431 6.692 29.0231 6.716 28.9591 6.732H28.6951H28.4551L28.1191 6.564C27.9271 6.564 27.6311 6.572 27.2311 6.588C26.8151 6.588 26.3511 6.596 25.8391 6.612C25.3111 6.628 24.7671 6.644 24.2071 6.66C23.6471 6.66 23.1111 6.668 22.5991 6.684C22.0711 6.7 21.6071 6.716 21.2071 6.732C20.7911 6.732 20.4871 6.732 20.2951 6.732C20.0551 6.732 19.6231 6.732 18.9991 6.732C18.3751 6.716 17.7191 6.708 17.0311 6.708C16.3431 6.708 15.6951 6.708 15.0871 6.708C14.4631 6.692 14.0311 6.684 13.7911 6.684V6.564H15.5191C15.5191 6.5 15.4951 6.444 15.4471 6.396C15.4151 6.364 15.3431 6.308 15.2311 6.228C15.1031 6.148 15.0071 6.092 14.9431 6.06C14.9111 6.028 14.8311 5.996 14.7031 5.964C14.5751 5.916 14.4951 5.892 14.4631 5.892C14.4471 5.892 14.3911 5.892 14.2951 5.892C14.1831 5.876 14.1031 5.868 14.0551 5.868C13.9911 5.868 13.9111 5.876 13.8151 5.892C13.7031 5.892 13.6391 5.892 13.6231 5.892C13.5591 5.892 13.4231 5.916 13.2151 5.964C13.0071 5.996 12.8631 6.028 12.7831 6.06C12.7671 6.06 12.7191 6.084 12.6391 6.132C12.5431 6.164 12.4791 6.196 12.4471 6.228C12.4151 6.244 12.3351 6.3 12.2071 6.396C12.0631 6.476 11.9751 6.532 11.9431 6.564C11.9111 6.58 11.8631 6.612 11.7991 6.66C11.7191 6.692 11.6631 6.716 11.6311 6.732C11.5191 6.748 11.3271 6.772 11.0551 6.804C10.7831 6.836 10.5031 6.876 10.2151 6.924C9.91112 6.956 9.62312 6.988 9.35112 7.02C9.07912 7.036 8.88712 7.044 8.77512 7.044C8.75912 7.044 8.67912 7.052 8.53512 7.068C8.37512 7.068 8.19112 7.068 7.98312 7.068H7.35912H6.83112H6.27912H5.58312C5.34312 7.068 5.13512 7.068 4.95912 7.068C4.76712 7.052 4.65512 7.044 4.62312 7.044C4.57512 7.044 4.46312 7.036 4.28712 7.02C4.09512 7.004 3.88712 6.988 3.66312 6.972C3.42312 6.956 3.19112 6.94 2.96712 6.924C2.74312 6.908 2.57512 6.9 2.46312 6.9C2.43112 6.9 2.35112 6.892 2.22312 6.876C2.07912 6.86 1.93512 6.844 1.79112 6.828C1.64712 6.796 1.51112 6.772 1.38312 6.756C1.23912 6.74 1.15112 6.732 1.11912 6.732C1.07112 6.716 0.959123 6.708 0.783124 6.708C0.607123 6.692 0.495123 6.684 0.447123 6.684V7.212C0.511124 7.212 0.631124 7.22 0.807122 7.236C0.983123 7.236 1.17512 7.244 1.38312 7.26C1.57512 7.276 1.75912 7.3 1.93512 7.332C2.11112 7.348 2.23112 7.364 2.29512 7.38C2.31112 7.38 2.35912 7.396 2.43912 7.428C2.51912 7.46 2.60712 7.5 2.70312 7.548C2.79912 7.596 2.88712 7.636 2.96712 7.668C3.04712 7.7 3.09512 7.716 3.11112 7.716C3.12712 7.716 3.15912 7.724 3.20712 7.74C3.23912 7.74 3.26312 7.74 3.27912 7.74C3.31112 7.74 3.35112 7.74 3.39912 7.74C3.43112 7.724 3.44712 7.716 3.44712 7.716C3.55912 7.716 3.61512 7.66 3.61512 7.548H4.45512H5.29512C5.34312 7.548 5.44712 7.556 5.60712 7.572C5.76712 7.588 5.93512 7.612 6.11112 7.644C6.28712 7.66 6.45512 7.676 6.61512 7.692C6.77512 7.708 6.88712 7.716 6.95112 7.716C6.98312 7.732 7.09512 7.764 7.28712 7.812C7.47912 7.86 7.59112 7.884 7.62312 7.884H7.71912H7.79112C7.82312 7.868 7.87912 7.82 7.95912 7.74C8.03912 7.644 8.09512 7.58 8.12712 7.548L10.7911 7.212L10.9591 7.38C10.9271 7.46 10.8711 7.604 10.7911 7.812C10.7111 8.02 10.6551 8.156 10.6231 8.22L10.4551 8.724L10.2871 8.892H10.2151H10.1191L8.46312 8.052H8.29512H8.12712C8.09512 8.068 8.06312 8.1 8.03113 8.148C7.98312 8.18 7.95912 8.204 7.95912 8.22C8.00712 8.252 8.11112 8.3 8.27112 8.364C8.43112 8.428 8.59912 8.492 8.77512 8.556C8.95112 8.62 9.11912 8.684 9.27912 8.748C9.43912 8.812 9.55112 8.86 9.61512 8.892C9.69512 8.892 9.75112 8.948 9.78312 9.06V9.132V9.228C9.78312 9.26 9.76712 9.324 9.73512 9.42C9.70312 9.516 9.66312 9.62 9.61512 9.732C9.56712 9.828 9.52712 9.924 9.49512 10.02C9.46312 10.116 9.44712 10.18 9.44712 10.212V10.38V10.548C9.46312 10.596 9.48712 10.684 9.51912 10.812C9.55112 10.94 9.58312 11.068 9.61512 11.196C9.64712 11.324 9.67912 11.444 9.71112 11.556C9.74312 11.652 9.76712 11.708 9.78312 11.724C9.79912 11.756 9.85512 11.812 9.95112 11.892C10.0311 11.972 10.0871 12.028 10.1191 12.06C10.1511 12.06 10.2631 12.108 10.4551 12.204C10.6471 12.3 10.7591 12.364 10.7911 12.396C10.8391 12.396 10.8951 12.452 10.9591 12.564C11.0231 12.676 11.0791 12.788 11.1271 12.9C11.1591 12.9 11.2151 12.884 11.2951 12.852C11.3751 12.804 11.4311 12.764 11.4631 12.732C11.4631 12.716 11.4711 12.676 11.4871 12.612C11.5031 12.532 11.5191 12.46 11.5351 12.396C11.5511 12.316 11.5671 12.244 11.5831 12.18C11.5991 12.116 11.6151 12.076 11.6311 12.06C11.6631 12.028 11.7591 11.972 11.9191 11.892C12.0791 11.796 12.1991 11.74 12.2791 11.724C12.3271 11.708 12.4551 11.692 12.6631 11.676C12.8551 11.644 12.9751 11.628 13.0231 11.628ZM26.4631 9.036V8.892C26.4471 8.86 26.3991 8.788 26.3191 8.676C26.2231 8.548 26.1591 8.452 26.1271 8.388C26.1111 8.356 26.0871 8.324 26.0551 8.292C26.0071 8.26 25.9751 8.236 25.9591 8.22C25.9111 8.204 25.8391 8.172 25.7431 8.124C25.6471 8.076 25.5431 8.028 25.4311 7.98C25.3191 7.916 25.2231 7.86 25.1431 7.812C25.0471 7.764 24.9831 7.732 24.9511 7.716C24.8871 7.684 24.7751 7.652 24.6151 7.62C24.4391 7.572 24.3271 7.548 24.2791 7.548H23.1031H21.9511C21.9351 7.548 21.8631 7.572 21.7351 7.62C21.6071 7.652 21.5111 7.684 21.4471 7.716C21.4311 7.732 21.3831 7.764 21.3031 7.812C21.2071 7.86 21.1431 7.884 21.1111 7.884C21.0471 7.916 20.9111 7.956 20.7031 8.004C20.4951 8.036 20.3591 8.052 20.2951 8.052C20.2791 8.068 20.2711 8.1 20.2711 8.148V8.22V8.34C20.2711 8.372 20.2791 8.388 20.2951 8.388C20.3271 8.468 20.3751 8.58 20.4391 8.724C20.5031 8.852 20.5751 8.988 20.6551 9.132C20.7191 9.26 20.7831 9.388 20.8471 9.516C20.8951 9.628 20.9271 9.7 20.9431 9.732C20.9751 9.764 21.0471 9.836 21.1591 9.948C21.2711 10.06 21.3991 10.188 21.5431 10.332C21.6711 10.476 21.8071 10.62 21.9511 10.764C22.0951 10.892 22.2071 10.988 22.2871 11.052C22.3031 11.068 22.3431 11.1 22.4071 11.148C22.4711 11.196 22.5431 11.244 22.6231 11.292C22.6871 11.34 22.7511 11.396 22.8151 11.46C22.8791 11.508 22.9271 11.54 22.9591 11.556L23.2951 11.724C23.3591 11.756 23.4791 11.788 23.6551 11.82C23.8151 11.852 23.9111 11.876 23.9431 11.892H24.3751H24.7831C24.8151 11.876 24.8951 11.852 25.0231 11.82C25.1511 11.788 25.2391 11.756 25.2871 11.724C25.3511 11.692 25.4471 11.636 25.5751 11.556C25.6871 11.476 25.7591 11.42 25.7911 11.388C25.8231 11.356 25.8791 11.26 25.9591 11.1C26.0391 10.924 26.0951 10.796 26.1271 10.716C26.1431 10.684 26.1671 10.604 26.1991 10.476C26.2311 10.332 26.2711 10.18 26.3191 10.02C26.3511 9.86 26.3831 9.708 26.4151 9.564C26.4311 9.404 26.4471 9.292 26.4631 9.228V9.036ZM25.4551 10.212C25.5351 10.212 25.5751 10.268 25.5751 10.38C25.5751 10.492 25.5351 10.548 25.4551 10.548C25.3751 10.548 25.3351 10.492 25.3351 10.38C25.3351 10.268 25.3751 10.212 25.4551 10.212ZM27.6151 8.388C27.5351 8.388 27.4951 8.444 27.4951 8.556C27.4951 8.668 27.5351 8.724 27.6151 8.724C27.6951 8.724 27.7351 8.668 27.7351 8.556C27.7351 8.444 27.6951 8.388 27.6151 8.388ZM29.4631 5.796V5.724L29.2951 5.556C29.2791 5.556 29.2631 5.556 29.2471 5.556C29.2311 5.54 29.2151 5.532 29.1991 5.532C29.1831 5.532 29.1671 5.54 29.1511 5.556C29.1351 5.556 29.1271 5.556 29.1271 5.556C29.0951 5.588 29.0631 5.644 29.0311 5.724C28.9831 5.804 28.9591 5.86 28.9591 5.892H27.9511C27.9831 5.924 28.0631 5.988 28.1911 6.084C28.3191 6.164 28.4071 6.212 28.4551 6.228C28.4711 6.228 28.5191 6.236 28.5991 6.252C28.6791 6.252 28.7431 6.252 28.7911 6.252C28.8391 6.252 28.9031 6.252 28.9831 6.252C29.0631 6.236 29.1111 6.228 29.1271 6.228L29.4631 5.892V5.796ZM25.1431 3.228C25.1431 3.148 25.1431 3.02 25.1431 2.844C25.1271 2.668 25.1191 2.572 25.1191 2.556C25.1191 2.556 25.1111 2.516 25.0951 2.436C25.0631 2.34 25.0311 2.244 24.9991 2.148C24.9671 2.036 24.9351 1.924 24.9031 1.812C24.8551 1.7 24.8151 1.612 24.7831 1.548L24.6151 1.212C24.5831 1.18 24.5271 1.124 24.4471 1.044C24.3671 0.963999 24.3111 0.915999 24.2791 0.899999C24.2311 0.883999 24.1271 0.868 23.9671 0.852C23.7911 0.835999 23.6791 0.827999 23.6311 0.827999C23.5511 0.827999 23.4231 0.835999 23.2471 0.852C23.0711 0.868 22.9751 0.883999 22.9591 0.899999C22.9431 0.899999 22.8871 0.939999 22.7911 1.02C22.6791 1.1 22.5511 1.196 22.4071 1.308C22.2631 1.404 22.1191 1.508 21.9751 1.62C21.8311 1.732 21.7111 1.82 21.6151 1.884C21.4711 2.012 21.3511 2.14 21.2551 2.268C21.1591 2.396 21.0551 2.548 20.9431 2.724C20.9271 2.756 20.9031 2.812 20.8711 2.892C20.8231 2.972 20.7911 3.028 20.7751 3.06C20.7591 3.124 20.7351 3.244 20.7031 3.42C20.6551 3.58 20.6311 3.684 20.6311 3.732C20.6151 3.764 20.6151 3.876 20.6311 4.068C20.6311 4.244 20.6311 4.348 20.6311 4.38C20.6151 4.412 20.5831 4.476 20.5351 4.572C20.4871 4.652 20.4631 4.7 20.4631 4.716C20.4311 4.764 20.3991 4.876 20.3671 5.052C20.3191 5.228 20.2951 5.34 20.2951 5.388C20.2791 5.388 20.2631 5.396 20.2471 5.412C20.2311 5.412 20.2151 5.412 20.1991 5.412C20.1831 5.412 20.1671 5.412 20.1511 5.412C20.1351 5.396 20.1271 5.388 20.1271 5.388C20.0951 5.356 20.0631 5.276 20.0311 5.148C19.9991 5.004 19.9751 4.916 19.9591 4.884C19.9111 4.82 19.8231 4.724 19.6951 4.596C19.5671 4.468 19.4871 4.396 19.4551 4.38C19.4231 4.38 19.3671 4.404 19.2871 4.452C19.2071 4.484 19.1511 4.516 19.1191 4.548C19.1191 4.548 19.1191 4.564 19.1191 4.596C19.1031 4.612 19.0951 4.628 19.0951 4.644C19.0951 4.66 19.1031 4.676 19.1191 4.692C19.1191 4.708 19.1191 4.716 19.1191 4.716L19.6231 5.22V5.364V5.556C19.6071 5.572 19.5751 5.628 19.5271 5.724C19.4791 5.804 19.4551 5.86 19.4551 5.892C19.4551 5.908 19.4791 5.94 19.5271 5.988C19.5591 6.02 19.5911 6.044 19.6231 6.06H19.6951H19.7911C19.8071 6.044 19.8391 6.012 19.8871 5.964C19.9191 5.916 19.9431 5.892 19.9591 5.892C19.9591 5.892 20.0151 5.892 20.1271 5.892C20.2231 5.876 20.3031 5.868 20.3671 5.868C20.4151 5.868 20.4951 5.876 20.6071 5.892C20.7191 5.892 20.7751 5.892 20.7751 5.892C20.8071 5.892 20.8951 5.924 21.0391 5.988C21.1671 6.036 21.2471 6.06 21.2791 6.06H21.7831H22.2871C22.3351 6.044 22.4471 6.02 22.6231 5.988C22.7831 5.956 22.8951 5.924 22.9591 5.892L23.6311 5.556C23.6631 5.54 23.7271 5.508 23.8231 5.46C23.9031 5.412 23.9911 5.356 24.0871 5.292C24.1831 5.228 24.2711 5.172 24.3511 5.124C24.4151 5.076 24.4471 5.052 24.4471 5.052C24.4791 5.02 24.5431 4.964 24.6391 4.884C24.7191 4.804 24.7671 4.748 24.7831 4.716C24.8311 4.636 24.8951 4.492 24.9751 4.284C25.0551 4.076 25.1031 3.948 25.1191 3.9C25.1191 3.868 25.1271 3.772 25.1431 3.612C25.1431 3.436 25.1431 3.308 25.1431 3.228ZM21.1111 2.892C21.1751 2.876 21.2071 2.908 21.2071 2.988C21.2071 3.052 21.1751 3.076 21.1111 3.06C21.0631 3.044 21.0391 3.02 21.0391 2.988C21.0391 2.956 21.0631 2.924 21.1111 2.892ZM21.2791 2.556C21.3591 2.556 21.3991 2.612 21.3991 2.724C21.3991 2.836 21.3591 2.892 21.2791 2.892C21.1991 2.892 21.1591 2.836 21.1591 2.724C21.1591 2.612 21.1991 2.556 21.2791 2.556ZM23.1271 1.884C23.1111 1.836 23.1431 1.812 23.2231 1.812C23.2871 1.812 23.3111 1.836 23.2951 1.884C23.2791 1.932 23.2551 1.956 23.2231 1.956C23.1911 1.956 23.1591 1.932 23.1271 1.884ZM22.2871 1.884C22.2711 1.836 22.3031 1.812 22.3831 1.812C22.4471 1.812 22.4711 1.836 22.4551 1.884C22.4391 1.932 22.4151 1.956 22.3831 1.956C22.3511 1.956 22.3191 1.932 22.2871 1.884Z" fill="white"/>
</svg>
