<svg width="353" height="29" viewBox="0 0 353 29" fill="none" xmlns="http://www.w3.org/2000/svg">
<path d="M9.23438 21.2812C8.90104 21.9688 8.43229 22.5156 7.82812 22.9219C7.22396 23.3177 6.53646 23.5156 5.76562 23.5156C5.13021 23.5156 4.5625 23.3229 4.0625 22.9375C3.5625 22.5521 3.11979 22.0469 2.73438 21.4219C2.35938 20.7969 2.03646 20.0938 1.76562 19.3125C1.50521 18.5208 1.28646 17.7188 1.10938 16.9062C0.942708 16.0938 0.817708 15.3125 0.734375 14.5625C0.661458 13.8021 0.625 13.1406 0.625 12.5781C0.625 11.8906 0.661458 11.1354 0.734375 10.3125C0.807292 9.48958 0.927083 8.66146 1.09375 7.82812C1.26042 6.98438 1.47396 6.16667 1.73438 5.375C2.00521 4.58333 2.32812 3.88542 2.70312 3.28125C3.08854 2.66667 3.53125 2.17708 4.03125 1.8125C4.53125 1.4375 5.10417 1.25 5.75 1.25C6.30208 1.25 6.75 1.41146 7.09375 1.73438C7.4375 2.05729 7.70833 2.45833 7.90625 2.9375C8.10417 3.40625 8.23438 3.90625 8.29688 4.4375C8.36979 4.96875 8.40625 5.44271 8.40625 5.85938C8.40625 6.98438 8.27083 8.09375 8 9.1875C7.73958 10.2708 7.375 11.2969 6.90625 12.2656C6.44792 13.224 5.90625 14.099 5.28125 14.8906C4.65625 15.6719 3.98438 16.3281 3.26562 16.8594C3.41146 17.5573 3.58333 18.2396 3.78125 18.9062C3.98958 19.5625 4.23958 20.151 4.53125 20.6719C4.82292 21.1823 5.15625 21.599 5.53125 21.9219C5.91667 22.2344 6.35417 22.3906 6.84375 22.3906C7.33333 22.3906 7.75521 22.2917 8.10938 22.0938C8.46354 21.8958 8.79167 21.6042 9.09375 21.2188L9.23438 21.2812ZM2.79688 11.6406C2.78646 11.8698 2.78125 12.151 2.78125 12.4844C2.79167 12.8177 2.80729 13.1875 2.82812 13.5938C2.85938 13.9896 2.90104 14.4167 2.95312 14.875C3.00521 15.3333 3.07292 15.8021 3.15625 16.2812C3.85417 15.6562 4.44792 14.9635 4.9375 14.2031C5.42708 13.4427 5.82812 12.625 6.14062 11.75C6.45312 10.8646 6.67708 9.9375 6.8125 8.96875C6.95833 7.98958 7.03125 6.97396 7.03125 5.92188C7.03125 5.78646 7.02604 5.60938 7.01562 5.39062C7.01562 5.17188 7 4.9375 6.96875 4.6875C6.9375 4.4375 6.89062 4.1875 6.82812 3.9375C6.77604 3.6875 6.69792 3.46354 6.59375 3.26562C6.5 3.05729 6.375 2.89062 6.21875 2.76562C6.07292 2.63021 5.89583 2.5625 5.6875 2.5625C5.29167 2.5625 4.94271 2.76042 4.64062 3.15625C4.34896 3.54167 4.09375 4.03646 3.875 4.64062C3.66667 5.24479 3.48958 5.91146 3.34375 6.64062C3.20833 7.36979 3.09896 8.07292 3.01562 8.75C2.93229 9.41667 2.875 10.0156 2.84375 10.5469C2.8125 11.0781 2.79688 11.4427 2.79688 11.6406ZM16.4062 14.8125C16.4062 14.9271 16.3646 15.0312 16.2812 15.125C16.1979 15.2083 16.099 15.25 15.9844 15.25C15.8906 15.25 15.7917 15.224 15.6875 15.1719C15.5833 15.1094 15.4635 15.0417 15.3281 14.9688C15.2031 14.8958 15.0521 14.8333 14.875 14.7812C14.7083 14.7188 14.5156 14.6875 14.2969 14.6875C13.7865 14.6875 13.3281 14.849 12.9219 15.1719C12.526 15.4844 12.1875 15.875 11.9062 16.3438C11.6354 16.8125 11.4271 17.3125 11.2812 17.8438C11.1354 18.375 11.0625 18.8542 11.0625 19.2812C11.0625 19.5833 11.0885 19.8802 11.1406 20.1719C11.1927 20.4531 11.2812 20.7135 11.4062 20.9531C11.5417 21.1823 11.724 21.3698 11.9531 21.5156C12.1823 21.651 12.474 21.7188 12.8281 21.7188C13.2031 21.7188 13.5625 21.651 13.9062 21.5156C14.25 21.3698 14.5729 21.1823 14.875 20.9531C14.8854 20.6198 14.9375 20.2708 15.0312 19.9062C15.1354 19.5312 15.2656 19.1667 15.4219 18.8125C15.5781 18.4479 15.7552 18.1042 15.9531 17.7812C16.1615 17.4583 16.375 17.1719 16.5938 16.9219L16.7969 17.0469C16.6823 17.401 16.599 17.7656 16.5469 18.1406C16.4948 18.5156 16.4688 18.8854 16.4688 19.25C16.4688 19.625 16.5 19.9792 16.5625 20.3125C16.625 20.6458 16.7344 20.9375 16.8906 21.1875C17.0469 21.4271 17.2604 21.6198 17.5312 21.7656C17.8021 21.901 18.151 21.9688 18.5781 21.9688C19.099 21.9688 19.5781 21.849 20.0156 21.6094C20.4531 21.3698 20.8385 21.0677 21.1719 20.7031L21.2969 20.7656C21.1094 21.1302 20.8646 21.4792 20.5625 21.8125C20.2604 22.1458 19.9219 22.4479 19.5469 22.7188C19.1823 22.9792 18.7917 23.1875 18.375 23.3438C17.9583 23.5 17.5469 23.5781 17.1406 23.5781C16.5677 23.5781 16.099 23.4115 15.7344 23.0781C15.3698 22.7552 15.1198 22.3438 14.9844 21.8438C14.5469 22.2812 14.0573 22.651 13.5156 22.9531C12.9844 23.2448 12.4219 23.3906 11.8281 23.3906C11.3906 23.3906 11 23.3073 10.6562 23.1406C10.3229 22.9844 10.0417 22.7708 9.8125 22.5C9.58333 22.2292 9.40625 21.9115 9.28125 21.5469C9.16667 21.1719 9.10938 20.7812 9.10938 20.375C9.10938 19.9062 9.18229 19.4271 9.32812 18.9375C9.48438 18.4375 9.69271 17.9479 9.95312 17.4688C10.224 16.9896 10.5417 16.5365 10.9062 16.1094C11.2708 15.6823 11.6667 15.3073 12.0938 14.9844C12.5312 14.6615 12.9896 14.4062 13.4688 14.2188C13.9479 14.0312 14.4375 13.9375 14.9375 13.9375C15.0521 13.9375 15.1927 13.9531 15.3594 13.9844C15.526 14.0052 15.6875 14.0469 15.8438 14.1094C16 14.1719 16.1302 14.2604 16.2344 14.375C16.349 14.4896 16.4062 14.6354 16.4062 14.8125ZM45.2812 5.84375C45.2812 6.69792 45.0677 7.49479 44.6406 8.23438C44.224 8.97396 43.6771 9.61458 43 10.1562C42.3333 10.6979 41.5885 11.125 40.7656 11.4375C39.9427 11.7396 39.1302 11.8802 38.3281 11.8594H38.0781V11.5781C38.7656 11.4323 39.4115 11.1823 40.0156 10.8281C40.6302 10.4635 41.1615 10.0208 41.6094 9.5C42.0677 8.97917 42.4271 8.39583 42.6875 7.75C42.9583 7.10417 43.0938 6.42708 43.0938 5.71875C43.0938 5.25 43.0365 4.80729 42.9219 4.39062C42.8073 3.97396 42.6302 3.61458 42.3906 3.3125C42.151 3.01042 41.8438 2.77083 41.4688 2.59375C41.1042 2.41667 40.6667 2.32812 40.1562 2.32812C39.4271 2.32812 38.6875 2.4375 37.9375 2.65625C37.1875 2.875 36.4635 3.18229 35.7656 3.57812C35.0677 3.97396 34.4115 4.44271 33.7969 4.98438C33.1927 5.52604 32.6615 6.11979 32.2031 6.76562C31.7552 7.41146 31.401 8.09896 31.1406 8.82812C30.8802 9.55729 30.75 10.3021 30.75 11.0625C30.75 11.875 30.8646 12.5781 31.0938 13.1719C31.3333 13.7552 31.651 14.2708 32.0469 14.7188C32.4531 15.1562 32.9219 15.5312 33.4531 15.8438C33.9844 16.1562 34.5521 16.4427 35.1562 16.7031C35.7604 16.9531 36.375 17.1875 37 17.4062C37.6354 17.625 38.2552 17.8594 38.8594 18.1094C39.4635 18.3594 40.0312 18.6406 40.5625 18.9531C41.0938 19.2552 41.5573 19.6198 41.9531 20.0469C42.3594 20.4635 42.6771 20.9635 42.9062 21.5469C43.1458 22.1198 43.2656 22.7969 43.2656 23.5781C43.2656 24.4323 43.0885 25.1927 42.7344 25.8594C42.3906 26.526 41.9323 27.0833 41.3594 27.5312C40.7865 27.9896 40.1302 28.3333 39.3906 28.5625C38.651 28.8021 37.8906 28.9219 37.1094 28.9219C36.2656 28.9219 35.4844 28.776 34.7656 28.4844C34.0469 28.2031 33.401 27.8177 32.8281 27.3281C32.2552 26.849 31.7552 26.2917 31.3281 25.6562C30.901 25.0312 30.5573 24.3802 30.2969 23.7031L30.5312 23.5781C30.8438 24.1302 31.2031 24.6719 31.6094 25.2031C32.0156 25.7448 32.474 26.224 32.9844 26.6406C33.4948 27.0677 34.0573 27.4115 34.6719 27.6719C35.2969 27.9323 35.974 28.0625 36.7031 28.0625C37.2969 28.0625 37.849 27.9792 38.3594 27.8125C38.8698 27.6458 39.3125 27.4062 39.6875 27.0938C40.0625 26.7812 40.3542 26.3958 40.5625 25.9375C40.7812 25.4792 40.8906 24.9583 40.8906 24.375C40.8906 23.5208 40.7083 22.8177 40.3438 22.2656C39.9792 21.7135 39.5 21.2448 38.9062 20.8594C38.3125 20.474 37.6354 20.1458 36.875 19.875C36.1146 19.6042 35.3333 19.3333 34.5312 19.0625C33.7396 18.7812 32.9635 18.4688 32.2031 18.125C31.4427 17.7708 30.7656 17.3281 30.1719 16.7969C29.5781 16.2656 29.099 15.6094 28.7344 14.8281C28.3698 14.0365 28.1875 13.0677 28.1875 11.9219C28.1875 10.8802 28.349 9.90104 28.6719 8.98438C28.9948 8.05729 29.4375 7.20833 30 6.4375C30.5729 5.66667 31.2448 4.97917 32.0156 4.375C32.7865 3.76042 33.6146 3.23958 34.5 2.8125C35.3958 2.38542 36.3281 2.0625 37.2969 1.84375C38.2656 1.61458 39.2396 1.5 40.2188 1.5C40.9167 1.5 41.5729 1.58333 42.1875 1.75C42.8125 1.91667 43.349 2.17708 43.7969 2.53125C44.2552 2.875 44.6146 3.32292 44.875 3.875C45.1458 4.42708 45.2812 5.08333 45.2812 5.84375ZM54.9375 20.7656C54.6667 21.1615 54.3385 21.5312 53.9531 21.875C53.5781 22.2188 53.1615 22.5156 52.7031 22.7656C52.2552 23.0156 51.7812 23.2135 51.2812 23.3594C50.7917 23.5052 50.2969 23.5781 49.7969 23.5781C49.0885 23.5781 48.4271 23.4844 47.8125 23.2969C47.1979 23.1198 46.6615 22.8438 46.2031 22.4688C45.7448 22.0938 45.3854 21.625 45.125 21.0625C44.8646 20.4896 44.7344 19.8229 44.7344 19.0625C44.7344 18.3125 44.8698 17.6146 45.1406 16.9688C45.4219 16.3125 45.8021 15.7448 46.2812 15.2656C46.7708 14.776 47.3438 14.3906 48 14.1094C48.6562 13.8281 49.3594 13.6875 50.1094 13.6875C50.4635 13.6875 50.7917 13.7396 51.0938 13.8438C51.4062 13.9375 51.6771 14.0833 51.9062 14.2812C52.1354 14.4688 52.3125 14.7031 52.4375 14.9844C52.5729 15.2656 52.6406 15.5885 52.6406 15.9531C52.6406 16.3906 52.5521 16.776 52.375 17.1094C52.1979 17.4427 51.9635 17.7344 51.6719 17.9844C51.3802 18.2344 51.0469 18.4427 50.6719 18.6094C50.3073 18.776 49.9219 18.9115 49.5156 19.0156C49.1198 19.1198 48.724 19.1979 48.3281 19.25C47.9427 19.2917 47.5885 19.3125 47.2656 19.3125H46.8906C47.026 20.2604 47.401 20.9844 48.0156 21.4844C48.6302 21.9844 49.4792 22.2344 50.5625 22.2344C51.3333 22.2344 52.0833 22.099 52.8125 21.8281C53.5521 21.5573 54.2188 21.1823 54.8125 20.7031L54.9375 20.7656ZM46.8438 18.8438H47.2344C47.6094 18.8438 47.9948 18.7865 48.3906 18.6719C48.7865 18.5469 49.1406 18.3698 49.4531 18.1406C49.776 17.901 50.0417 17.6094 50.25 17.2656C50.4583 16.9219 50.5625 16.5312 50.5625 16.0938C50.5625 15.6667 50.4688 15.3125 50.2812 15.0312C50.1042 14.75 49.7917 14.6094 49.3438 14.6094C48.8854 14.6094 48.4948 14.75 48.1719 15.0312C47.8594 15.3021 47.6042 15.6406 47.4062 16.0469C47.2083 16.4427 47.0625 16.8646 46.9688 17.3125C46.8854 17.75 46.8438 18.1406 46.8438 18.4844V18.8438ZM72.6562 20.7656C72.4688 21.1406 72.2448 21.5052 71.9844 21.8594C71.724 22.2031 71.4323 22.5104 71.1094 22.7812C70.7865 23.0521 70.4271 23.2656 70.0312 23.4219C69.6458 23.5885 69.224 23.6719 68.7656 23.6719C68.1198 23.6719 67.5938 23.4531 67.1875 23.0156C66.7812 22.5781 66.4479 22.0104 66.1875 21.3125C65.9375 20.6042 65.7396 19.8073 65.5938 18.9219C65.4479 18.026 65.3229 17.125 65.2188 16.2188C64.9792 16.6458 64.7552 17.0938 64.5469 17.5625C64.349 18.0208 64.1562 18.5052 63.9688 19.0156C63.7812 19.526 63.5938 20.0521 63.4062 20.5938C63.2188 21.1354 63.0156 21.6927 62.7969 22.2656C62.7448 22.3906 62.6875 22.5312 62.625 22.6875C62.5625 22.8333 62.4792 22.974 62.375 23.1094C62.2812 23.2552 62.1667 23.375 62.0312 23.4688C61.8958 23.5625 61.7344 23.6094 61.5469 23.6094C61.4115 23.6094 61.2917 23.5781 61.1875 23.5156C61.0833 23.4531 60.9896 23.375 60.9062 23.2812C60.8333 23.1979 60.7656 23.1042 60.7031 23C60.651 22.8854 60.6042 22.7812 60.5625 22.6875C60.3542 22.2188 60.1875 21.7396 60.0625 21.25C59.9375 20.7604 59.8281 20.2552 59.7344 19.7344C59.651 19.2135 59.5781 18.6615 59.5156 18.0781C59.4531 17.4948 59.3906 16.875 59.3281 16.2188C59.1094 16.7292 58.9115 17.2188 58.7344 17.6875C58.5677 18.1458 58.401 18.6094 58.2344 19.0781C58.0781 19.5365 57.9167 20.0156 57.75 20.5156C57.5938 21.0052 57.4271 21.5365 57.25 22.1094C57.2083 22.2448 57.1615 22.3906 57.1094 22.5469C57.0677 22.6927 57.0104 22.8281 56.9375 22.9531C56.875 23.0781 56.7865 23.1823 56.6719 23.2656C56.5677 23.349 56.4323 23.3906 56.2656 23.3906C55.9948 23.3906 55.7969 23.3021 55.6719 23.125C55.5469 22.9583 55.4427 22.7604 55.3594 22.5312C55.2344 22.2188 55.1146 21.7865 55 21.2344C54.8854 20.6719 54.7812 20.0625 54.6875 19.4062C54.5938 18.75 54.5208 18.0729 54.4688 17.375C54.4167 16.6771 54.3906 16.026 54.3906 15.4219C54.3906 14.8385 54.5469 14.4115 54.8594 14.1406C55.1719 13.8594 55.5833 13.7188 56.0938 13.7188C56.125 13.7188 56.1719 13.7188 56.2344 13.7188C56.2969 13.7188 56.3594 13.7292 56.4219 13.75C56.4844 13.7604 56.5365 13.7812 56.5781 13.8125C56.6302 13.8438 56.651 13.8854 56.6406 13.9375C56.5469 14.6667 56.4844 15.3594 56.4531 16.0156C56.4219 16.6719 56.4115 17.3125 56.4219 17.9375C56.4323 18.5521 56.4635 19.1615 56.5156 19.7656C56.5781 20.3594 56.6562 20.9688 56.75 21.5938C56.9271 21 57.099 20.4323 57.2656 19.8906C57.4427 19.349 57.625 18.8125 57.8125 18.2812C58 17.75 58.1979 17.2135 58.4062 16.6719C58.625 16.1198 58.8594 15.5417 59.1094 14.9375C59.2448 14.625 59.3854 14.4062 59.5312 14.2812C59.6875 14.1562 59.8854 14.0938 60.125 14.0938C60.4271 14.0938 60.6615 14.2083 60.8281 14.4375C61.0052 14.6667 61.1198 14.9271 61.1719 15.2188C61.2552 15.75 61.3281 16.2969 61.3906 16.8594C61.4531 17.4115 61.5208 17.9688 61.5938 18.5312C61.6667 19.0938 61.7552 19.651 61.8594 20.2031C61.9635 20.7448 62.099 21.2708 62.2656 21.7812C62.474 21.2396 62.6823 20.6771 62.8906 20.0938C63.099 19.5 63.3125 18.9062 63.5312 18.3125C63.75 17.7188 63.9792 17.1354 64.2188 16.5625C64.4688 15.9896 64.7344 15.4479 65.0156 14.9375C65.151 14.6979 65.3021 14.5 65.4688 14.3438C65.6458 14.1771 65.8646 14.0938 66.125 14.0938C66.2708 14.0938 66.401 14.1302 66.5156 14.2031C66.6302 14.2656 66.7292 14.3542 66.8125 14.4688C66.8958 14.5729 66.9635 14.6927 67.0156 14.8281C67.0677 14.9531 67.1042 15.0833 67.125 15.2188C67.1771 15.5208 67.224 15.9115 67.2656 16.3906C67.3177 16.8698 67.3802 17.3802 67.4531 17.9219C67.5365 18.4635 67.6354 19.0104 67.75 19.5625C67.8646 20.1042 68.0104 20.599 68.1875 21.0469C68.3646 21.4844 68.5781 21.8438 68.8281 22.125C69.0781 22.4062 69.3802 22.5469 69.7344 22.5469C70.026 22.5469 70.3073 22.4948 70.5781 22.3906C70.849 22.276 71.1042 22.1354 71.3438 21.9688C71.5833 21.7917 71.8021 21.5938 72 21.375C72.2083 21.1458 72.3958 20.9219 72.5625 20.7031L72.6562 20.7656ZM79.4062 14.8125C79.4062 14.9271 79.3646 15.0312 79.2812 15.125C79.1979 15.2083 79.099 15.25 78.9844 15.25C78.8906 15.25 78.7917 15.224 78.6875 15.1719C78.5833 15.1094 78.4635 15.0417 78.3281 14.9688C78.2031 14.8958 78.0521 14.8333 77.875 14.7812C77.7083 14.7188 77.5156 14.6875 77.2969 14.6875C76.7865 14.6875 76.3281 14.849 75.9219 15.1719C75.526 15.4844 75.1875 15.875 74.9062 16.3438C74.6354 16.8125 74.4271 17.3125 74.2812 17.8438C74.1354 18.375 74.0625 18.8542 74.0625 19.2812C74.0625 19.5833 74.0885 19.8802 74.1406 20.1719C74.1927 20.4531 74.2812 20.7135 74.4062 20.9531C74.5417 21.1823 74.724 21.3698 74.9531 21.5156C75.1823 21.651 75.474 21.7188 75.8281 21.7188C76.2031 21.7188 76.5625 21.651 76.9062 21.5156C77.25 21.3698 77.5729 21.1823 77.875 20.9531C77.8854 20.6198 77.9375 20.2708 78.0312 19.9062C78.1354 19.5312 78.2656 19.1667 78.4219 18.8125C78.5781 18.4479 78.7552 18.1042 78.9531 17.7812C79.1615 17.4583 79.375 17.1719 79.5938 16.9219L79.7969 17.0469C79.6823 17.401 79.599 17.7656 79.5469 18.1406C79.4948 18.5156 79.4688 18.8854 79.4688 19.25C79.4688 19.625 79.5 19.9792 79.5625 20.3125C79.625 20.6458 79.7344 20.9375 79.8906 21.1875C80.0469 21.4271 80.2604 21.6198 80.5312 21.7656C80.8021 21.901 81.151 21.9688 81.5781 21.9688C82.099 21.9688 82.5781 21.849 83.0156 21.6094C83.4531 21.3698 83.8385 21.0677 84.1719 20.7031L84.2969 20.7656C84.1094 21.1302 83.8646 21.4792 83.5625 21.8125C83.2604 22.1458 82.9219 22.4479 82.5469 22.7188C82.1823 22.9792 81.7917 23.1875 81.375 23.3438C80.9583 23.5 80.5469 23.5781 80.1406 23.5781C79.5677 23.5781 79.099 23.4115 78.7344 23.0781C78.3698 22.7552 78.1198 22.3438 77.9844 21.8438C77.5469 22.2812 77.0573 22.651 76.5156 22.9531C75.9844 23.2448 75.4219 23.3906 74.8281 23.3906C74.3906 23.3906 74 23.3073 73.6562 23.1406C73.3229 22.9844 73.0417 22.7708 72.8125 22.5C72.5833 22.2292 72.4062 21.9115 72.2812 21.5469C72.1667 21.1719 72.1094 20.7812 72.1094 20.375C72.1094 19.9062 72.1823 19.4271 72.3281 18.9375C72.4844 18.4375 72.6927 17.9479 72.9531 17.4688C73.224 16.9896 73.5417 16.5365 73.9062 16.1094C74.2708 15.6823 74.6667 15.3073 75.0938 14.9844C75.5312 14.6615 75.9896 14.4062 76.4688 14.2188C76.9479 14.0312 77.4375 13.9375 77.9375 13.9375C78.0521 13.9375 78.1927 13.9531 78.3594 13.9844C78.526 14.0052 78.6875 14.0469 78.8438 14.1094C79 14.1719 79.1302 14.2604 79.2344 14.375C79.349 14.4896 79.4062 14.6354 79.4062 14.8125ZM87.1875 10.3906C87.1875 10.599 87.1406 10.8073 87.0469 11.0156C86.9531 11.224 86.8281 11.4115 86.6719 11.5781C86.526 11.7344 86.3542 11.8646 86.1562 11.9688C85.9583 12.0729 85.7552 12.125 85.5469 12.125C85.276 12.125 85.0573 12.0365 84.8906 11.8594C84.7344 11.6823 84.6562 11.4583 84.6562 11.1875C84.6562 10.9792 84.7031 10.776 84.7969 10.5781C84.8906 10.3698 85.0104 10.1875 85.1562 10.0312C85.3125 9.875 85.4844 9.75 85.6719 9.65625C85.8698 9.55208 86.0729 9.5 86.2812 9.5C86.5521 9.5 86.7708 9.58333 86.9375 9.75C87.1042 9.91667 87.1875 10.1302 87.1875 10.3906ZM91.5625 20.7656C91.3229 21.1615 91.0365 21.526 90.7031 21.8594C90.3802 22.1823 90.0208 22.4688 89.625 22.7188C89.2396 22.9583 88.8229 23.1458 88.375 23.2812C87.9375 23.4167 87.4844 23.4844 87.0156 23.4844C86.4323 23.4844 85.9115 23.3854 85.4531 23.1875C85.0052 22.9896 84.625 22.7188 84.3125 22.375C84.0104 22.0208 83.776 21.6094 83.6094 21.1406C83.4531 20.6615 83.375 20.1406 83.375 19.5781C83.375 18.974 83.4635 18.401 83.6406 17.8594C83.8177 17.3177 84.0625 16.8125 84.375 16.3438C84.6875 15.8646 85.0521 15.4271 85.4688 15.0312C85.8958 14.6354 86.349 14.2812 86.8281 13.9688L87.0156 14.1094C86.5052 14.7135 86.0885 15.3906 85.7656 16.1406C85.4531 16.8906 85.2969 17.6719 85.2969 18.4844C85.2969 18.9531 85.349 19.4062 85.4531 19.8438C85.5677 20.2708 85.7396 20.651 85.9688 20.9844C86.2083 21.3177 86.5104 21.5833 86.875 21.7812C87.2396 21.9792 87.6823 22.0781 88.2031 22.0781C88.8177 22.0781 89.401 21.9479 89.9531 21.6875C90.5156 21.4271 91.0208 21.099 91.4688 20.7031L91.5625 20.7656ZM104.297 20.7656C104.099 21.1406 103.885 21.5 103.656 21.8438C103.438 22.1875 103.188 22.4896 102.906 22.75C102.625 23.0104 102.307 23.2188 101.953 23.375C101.599 23.5312 101.193 23.6094 100.734 23.6094C100.214 23.6094 99.7656 23.4792 99.3906 23.2188C99.0156 22.9688 98.6927 22.6354 98.4219 22.2188C98.1615 21.7917 97.9479 21.3073 97.7812 20.7656C97.625 20.224 97.4948 19.6719 97.3906 19.1094C97.2865 18.5469 97.2083 17.9948 97.1562 17.4531C97.1042 16.901 97.0573 16.4062 97.0156 15.9688C96.8177 16.125 96.5781 16.4271 96.2969 16.875C96.0156 17.3125 95.7292 17.8281 95.4375 18.4219C95.1458 19.0156 94.8646 19.6615 94.5938 20.3594C94.3333 21.0573 94.1198 21.7448 93.9531 22.4219C93.9219 22.5677 93.8698 22.7188 93.7969 22.875C93.7344 23.0312 93.651 23.1719 93.5469 23.2969C93.4531 23.4323 93.3385 23.5417 93.2031 23.625C93.0677 23.7188 92.9167 23.7656 92.75 23.7656C92.4792 23.7656 92.2812 23.6719 92.1562 23.4844C92.0417 23.2969 91.9583 23.0833 91.9062 22.8438C91.6042 21.5208 91.3906 20.2552 91.2656 19.0469C91.151 17.8385 91.0938 16.6302 91.0938 15.4219C91.0938 15.1302 91.1406 14.8802 91.2344 14.6719C91.3385 14.4531 91.474 14.276 91.6406 14.1406C91.8073 13.9948 92.0052 13.8906 92.2344 13.8281C92.4635 13.7552 92.7031 13.7188 92.9531 13.7188C92.9844 13.7188 93.0312 13.7188 93.0938 13.7188C93.1667 13.7188 93.2344 13.7292 93.2969 13.75C93.3594 13.7604 93.4115 13.7812 93.4531 13.8125C93.4948 13.8438 93.5104 13.8854 93.5 13.9375C93.2292 15.3021 93.099 16.6927 93.1094 18.1094C93.1198 19.5156 93.1927 20.8698 93.3281 22.1719C93.4427 21.651 93.6094 21.0625 93.8281 20.4062C94.0573 19.7396 94.3177 19.0729 94.6094 18.4062C94.9115 17.7292 95.2344 17.0885 95.5781 16.4844C95.9323 15.8698 96.2917 15.3542 96.6562 14.9375C96.8333 14.7396 97.0104 14.5729 97.1875 14.4375C97.375 14.2917 97.6042 14.2188 97.875 14.2188C98.0312 14.2188 98.1615 14.25 98.2656 14.3125C98.3698 14.375 98.4531 14.4531 98.5156 14.5469C98.5885 14.6406 98.6406 14.75 98.6719 14.875C98.7135 14.9896 98.7448 15.1042 98.7656 15.2188C98.8177 15.5208 98.8698 15.9115 98.9219 16.3906C98.974 16.8698 99.0365 17.3802 99.1094 17.9219C99.1927 18.4635 99.2917 19.0104 99.4062 19.5625C99.5208 20.1042 99.6667 20.599 99.8438 21.0469C100.021 21.4844 100.234 21.8438 100.484 22.125C100.734 22.4062 101.031 22.5469 101.375 22.5469C101.656 22.5469 101.927 22.4948 102.188 22.3906C102.458 22.276 102.714 22.1354 102.953 21.9688C103.193 21.7917 103.417 21.5938 103.625 21.375C103.833 21.1458 104.021 20.9219 104.188 20.7031L104.297 20.7656ZM113.5 20.7656C113.229 21.1615 112.901 21.5312 112.516 21.875C112.141 22.2188 111.724 22.5156 111.266 22.7656C110.818 23.0156 110.344 23.2135 109.844 23.3594C109.354 23.5052 108.859 23.5781 108.359 23.5781C107.651 23.5781 106.99 23.4844 106.375 23.2969C105.76 23.1198 105.224 22.8438 104.766 22.4688C104.307 22.0938 103.948 21.625 103.688 21.0625C103.427 20.4896 103.297 19.8229 103.297 19.0625C103.297 18.3125 103.432 17.6146 103.703 16.9688C103.984 16.3125 104.365 15.7448 104.844 15.2656C105.333 14.776 105.906 14.3906 106.562 14.1094C107.219 13.8281 107.922 13.6875 108.672 13.6875C109.026 13.6875 109.354 13.7396 109.656 13.8438C109.969 13.9375 110.24 14.0833 110.469 14.2812C110.698 14.4688 110.875 14.7031 111 14.9844C111.135 15.2656 111.203 15.5885 111.203 15.9531C111.203 16.3906 111.115 16.776 110.938 17.1094C110.76 17.4427 110.526 17.7344 110.234 17.9844C109.943 18.2344 109.609 18.4427 109.234 18.6094C108.87 18.776 108.484 18.9115 108.078 19.0156C107.682 19.1198 107.286 19.1979 106.891 19.25C106.505 19.2917 106.151 19.3125 105.828 19.3125H105.453C105.589 20.2604 105.964 20.9844 106.578 21.4844C107.193 21.9844 108.042 22.2344 109.125 22.2344C109.896 22.2344 110.646 22.099 111.375 21.8281C112.115 21.5573 112.781 21.1823 113.375 20.7031L113.5 20.7656ZM105.406 18.8438H105.797C106.172 18.8438 106.557 18.7865 106.953 18.6719C107.349 18.5469 107.703 18.3698 108.016 18.1406C108.339 17.901 108.604 17.6094 108.812 17.2656C109.021 16.9219 109.125 16.5312 109.125 16.0938C109.125 15.6667 109.031 15.3125 108.844 15.0312C108.667 14.75 108.354 14.6094 107.906 14.6094C107.448 14.6094 107.057 14.75 106.734 15.0312C106.422 15.3021 106.167 15.6406 105.969 16.0469C105.771 16.4427 105.625 16.8646 105.531 17.3125C105.448 17.75 105.406 18.1406 105.406 18.4844V18.8438ZM135.984 6.20312C135.984 6.44271 135.943 6.72917 135.859 7.0625C135.776 7.38542 135.651 7.70312 135.484 8.01562C135.328 8.31771 135.13 8.57812 134.891 8.79688C134.651 9.00521 134.375 9.10938 134.062 9.10938C133.896 9.10938 133.786 9.05208 133.734 8.9375C133.693 8.82292 133.672 8.69792 133.672 8.5625C133.672 8.125 133.708 7.69271 133.781 7.26562C133.854 6.83854 133.891 6.39583 133.891 5.9375C133.891 5.48958 133.854 5.05208 133.781 4.625C133.708 4.1875 133.573 3.80208 133.375 3.46875C133.188 3.13542 132.917 2.86979 132.562 2.67188C132.219 2.46354 131.776 2.35938 131.234 2.35938C130.453 2.35938 129.729 2.54167 129.062 2.90625C128.406 3.27083 127.802 3.76562 127.25 4.39062C126.708 5.01562 126.214 5.74479 125.766 6.57812C125.328 7.40104 124.938 8.27604 124.594 9.20312C124.25 10.1302 123.953 11.0781 123.703 12.0469C123.464 13.0156 123.26 13.9531 123.094 14.8594C122.938 15.7656 122.823 16.6146 122.75 17.4062C122.677 18.1875 122.641 18.8594 122.641 19.4219C122.641 19.9219 122.661 20.4531 122.703 21.0156C122.755 21.5781 122.839 22.1354 122.953 22.6875C123.078 23.2292 123.24 23.75 123.438 24.25C123.635 24.75 123.885 25.1875 124.188 25.5625C124.49 25.9479 124.849 26.25 125.266 26.4688C125.693 26.6979 126.188 26.8125 126.75 26.8125C127.573 26.8125 128.302 26.651 128.938 26.3281C129.573 26.0052 130.135 25.5729 130.625 25.0312C131.125 24.4896 131.552 23.8646 131.906 23.1562C132.271 22.4583 132.589 21.7344 132.859 20.9844C132.807 20.6198 132.766 20.2552 132.734 19.8906C132.703 19.5156 132.688 19.1458 132.688 18.7812C132.688 18.5312 132.698 18.224 132.719 17.8594C132.74 17.4844 132.776 17.0885 132.828 16.6719C132.88 16.2448 132.953 15.8177 133.047 15.3906C133.141 14.9531 133.255 14.5417 133.391 14.1562C133.526 13.7604 133.688 13.4167 133.875 13.125C134.062 12.8229 134.281 12.5938 134.531 12.4375C134.698 12.3438 134.865 12.2604 135.031 12.1875C135.208 12.1042 135.396 12.0625 135.594 12.0625C135.74 12.0625 135.854 12.0938 135.938 12.1562C136.031 12.2188 136.078 12.3229 136.078 12.4688C136.078 12.5625 136.062 12.6562 136.031 12.75C136.01 12.8333 135.979 12.9219 135.938 13.0156C135.552 14.0156 135.271 15.0417 135.094 16.0938C134.917 17.1458 134.828 18.2083 134.828 19.2812C134.828 19.6562 134.849 20.1094 134.891 20.6406C134.943 21.1719 135.01 21.7344 135.094 22.3281C135.177 22.9219 135.281 23.5312 135.406 24.1562C135.531 24.7812 135.672 25.375 135.828 25.9375C135.995 26.5 136.172 27.0104 136.359 27.4688C136.557 27.9271 136.771 28.2917 137 28.5625L136.719 28.6562C135.802 27.7292 135.031 26.6823 134.406 25.5156C133.792 24.3594 133.339 23.1458 133.047 21.875C132.557 23.0312 131.964 24.0885 131.266 25.0469C130.953 25.4531 130.604 25.8229 130.219 26.1562C129.833 26.5 129.422 26.7969 128.984 27.0469C128.547 27.2969 128.083 27.4896 127.594 27.625C127.115 27.7604 126.609 27.8281 126.078 27.8281C125.307 27.8281 124.625 27.6927 124.031 27.4219C123.448 27.151 122.943 26.7917 122.516 26.3438C122.089 25.8958 121.729 25.3802 121.438 24.7969C121.156 24.2135 120.932 23.6094 120.766 22.9844C120.599 22.349 120.479 21.7135 120.406 21.0781C120.333 20.4427 120.297 19.8542 120.297 19.3125C120.297 18.1042 120.406 16.8281 120.625 15.4844C120.854 14.1406 121.182 12.8125 121.609 11.5C122.036 10.1771 122.562 8.91667 123.188 7.71875C123.823 6.51042 124.547 5.44792 125.359 4.53125C126.172 3.61458 127.073 2.88542 128.062 2.34375C129.052 1.80208 130.12 1.53125 131.266 1.53125C131.964 1.53125 132.599 1.64583 133.172 1.875C133.755 2.09375 134.255 2.41146 134.672 2.82812C135.089 3.23438 135.411 3.72396 135.641 4.29688C135.87 4.86979 135.984 5.50521 135.984 6.20312ZM151.297 20.7656C151.099 21.1406 150.885 21.5 150.656 21.8438C150.438 22.1875 150.188 22.4896 149.906 22.75C149.625 23.0104 149.307 23.2188 148.953 23.375C148.599 23.5312 148.193 23.6094 147.734 23.6094C147.214 23.6094 146.766 23.4792 146.391 23.2188C146.016 22.9688 145.693 22.6354 145.422 22.2188C145.161 21.7917 144.948 21.3073 144.781 20.7656C144.625 20.224 144.495 19.6719 144.391 19.1094C144.286 18.5469 144.208 17.9948 144.156 17.4531C144.104 16.901 144.057 16.4062 144.016 15.9688C143.818 16.125 143.578 16.4271 143.297 16.875C143.016 17.3125 142.729 17.8281 142.438 18.4219C142.146 19.0156 141.865 19.6615 141.594 20.3594C141.333 21.0573 141.12 21.7448 140.953 22.4219C140.922 22.5677 140.87 22.7188 140.797 22.875C140.734 23.0312 140.651 23.1719 140.547 23.2969C140.453 23.4323 140.339 23.5417 140.203 23.625C140.068 23.7188 139.917 23.7656 139.75 23.7656C139.479 23.7656 139.281 23.6719 139.156 23.4844C139.042 23.2969 138.958 23.0833 138.906 22.8438C138.604 21.5208 138.391 20.2552 138.266 19.0469C138.151 17.8385 138.094 16.6302 138.094 15.4219C138.094 15.1302 138.141 14.8802 138.234 14.6719C138.339 14.4531 138.474 14.276 138.641 14.1406C138.807 13.9948 139.005 13.8906 139.234 13.8281C139.464 13.7552 139.703 13.7188 139.953 13.7188C139.984 13.7188 140.031 13.7188 140.094 13.7188C140.167 13.7188 140.234 13.7292 140.297 13.75C140.359 13.7604 140.411 13.7812 140.453 13.8125C140.495 13.8438 140.51 13.8854 140.5 13.9375C140.229 15.3021 140.099 16.6927 140.109 18.1094C140.12 19.5156 140.193 20.8698 140.328 22.1719C140.443 21.651 140.609 21.0625 140.828 20.4062C141.057 19.7396 141.318 19.0729 141.609 18.4062C141.911 17.7292 142.234 17.0885 142.578 16.4844C142.932 15.8698 143.292 15.3542 143.656 14.9375C143.833 14.7396 144.01 14.5729 144.188 14.4375C144.375 14.2917 144.604 14.2188 144.875 14.2188C145.031 14.2188 145.161 14.25 145.266 14.3125C145.37 14.375 145.453 14.4531 145.516 14.5469C145.589 14.6406 145.641 14.75 145.672 14.875C145.714 14.9896 145.745 15.1042 145.766 15.2188C145.818 15.5208 145.87 15.9115 145.922 16.3906C145.974 16.8698 146.036 17.3802 146.109 17.9219C146.193 18.4635 146.292 19.0104 146.406 19.5625C146.521 20.1042 146.667 20.599 146.844 21.0469C147.021 21.4844 147.234 21.8438 147.484 22.125C147.734 22.4062 148.031 22.5469 148.375 22.5469C148.656 22.5469 148.927 22.4948 149.188 22.3906C149.458 22.276 149.714 22.1354 149.953 21.9688C150.193 21.7917 150.417 21.5938 150.625 21.375C150.833 21.1458 151.021 20.9219 151.188 20.7031L151.297 20.7656ZM164.047 20.7656C163.849 21.1406 163.635 21.5 163.406 21.8438C163.188 22.1875 162.938 22.4896 162.656 22.75C162.375 23.0104 162.057 23.2188 161.703 23.375C161.349 23.5312 160.943 23.6094 160.484 23.6094C159.964 23.6094 159.516 23.4792 159.141 23.2188C158.766 22.9688 158.443 22.6354 158.172 22.2188C157.911 21.7917 157.698 21.3073 157.531 20.7656C157.375 20.224 157.245 19.6719 157.141 19.1094C157.036 18.5469 156.958 17.9948 156.906 17.4531C156.854 16.901 156.807 16.4062 156.766 15.9688C156.568 16.125 156.328 16.4271 156.047 16.875C155.766 17.3125 155.479 17.8281 155.188 18.4219C154.896 19.0156 154.615 19.6615 154.344 20.3594C154.083 21.0573 153.87 21.7448 153.703 22.4219C153.672 22.5677 153.62 22.7188 153.547 22.875C153.484 23.0312 153.401 23.1719 153.297 23.2969C153.203 23.4323 153.089 23.5417 152.953 23.625C152.818 23.7188 152.667 23.7656 152.5 23.7656C152.229 23.7656 152.031 23.6719 151.906 23.4844C151.792 23.2969 151.708 23.0833 151.656 22.8438C151.354 21.5208 151.141 20.2552 151.016 19.0469C150.901 17.8385 150.844 16.6302 150.844 15.4219C150.844 15.1302 150.891 14.8802 150.984 14.6719C151.089 14.4531 151.224 14.276 151.391 14.1406C151.557 13.9948 151.755 13.8906 151.984 13.8281C152.214 13.7552 152.453 13.7188 152.703 13.7188C152.734 13.7188 152.781 13.7188 152.844 13.7188C152.917 13.7188 152.984 13.7292 153.047 13.75C153.109 13.7604 153.161 13.7812 153.203 13.8125C153.245 13.8438 153.26 13.8854 153.25 13.9375C152.979 15.3021 152.849 16.6927 152.859 18.1094C152.87 19.5156 152.943 20.8698 153.078 22.1719C153.193 21.651 153.359 21.0625 153.578 20.4062C153.807 19.7396 154.068 19.0729 154.359 18.4062C154.661 17.7292 154.984 17.0885 155.328 16.4844C155.682 15.8698 156.042 15.3542 156.406 14.9375C156.583 14.7396 156.76 14.5729 156.938 14.4375C157.125 14.2917 157.354 14.2188 157.625 14.2188C157.781 14.2188 157.911 14.25 158.016 14.3125C158.12 14.375 158.203 14.4531 158.266 14.5469C158.339 14.6406 158.391 14.75 158.422 14.875C158.464 14.9896 158.495 15.1042 158.516 15.2188C158.568 15.5208 158.62 15.9115 158.672 16.3906C158.724 16.8698 158.786 17.3802 158.859 17.9219C158.943 18.4635 159.042 19.0104 159.156 19.5625C159.271 20.1042 159.417 20.599 159.594 21.0469C159.771 21.4844 159.984 21.8438 160.234 22.125C160.484 22.4062 160.781 22.5469 161.125 22.5469C161.406 22.5469 161.677 22.4948 161.938 22.3906C162.208 22.276 162.464 22.1354 162.703 21.9688C162.943 21.7917 163.167 21.5938 163.375 21.375C163.583 21.1458 163.771 20.9219 163.938 20.7031L164.047 20.7656ZM166.938 10.3906C166.938 10.599 166.891 10.8073 166.797 11.0156C166.703 11.224 166.578 11.4115 166.422 11.5781C166.276 11.7344 166.104 11.8646 165.906 11.9688C165.708 12.0729 165.505 12.125 165.297 12.125C165.026 12.125 164.807 12.0365 164.641 11.8594C164.484 11.6823 164.406 11.4583 164.406 11.1875C164.406 10.9792 164.453 10.776 164.547 10.5781C164.641 10.3698 164.76 10.1875 164.906 10.0312C165.062 9.875 165.234 9.75 165.422 9.65625C165.62 9.55208 165.823 9.5 166.031 9.5C166.302 9.5 166.521 9.58333 166.688 9.75C166.854 9.91667 166.938 10.1302 166.938 10.3906ZM171.312 20.7656C171.073 21.1615 170.786 21.526 170.453 21.8594C170.13 22.1823 169.771 22.4688 169.375 22.7188C168.99 22.9583 168.573 23.1458 168.125 23.2812C167.688 23.4167 167.234 23.4844 166.766 23.4844C166.182 23.4844 165.661 23.3854 165.203 23.1875C164.755 22.9896 164.375 22.7188 164.062 22.375C163.76 22.0208 163.526 21.6094 163.359 21.1406C163.203 20.6615 163.125 20.1406 163.125 19.5781C163.125 18.974 163.214 18.401 163.391 17.8594C163.568 17.3177 163.812 16.8125 164.125 16.3438C164.438 15.8646 164.802 15.4271 165.219 15.0312C165.646 14.6354 166.099 14.2812 166.578 13.9688L166.766 14.1094C166.255 14.7135 165.839 15.3906 165.516 16.1406C165.203 16.8906 165.047 17.6719 165.047 18.4844C165.047 18.9531 165.099 19.4062 165.203 19.8438C165.318 20.2708 165.49 20.651 165.719 20.9844C165.958 21.3177 166.26 21.5833 166.625 21.7812C166.99 21.9792 167.432 22.0781 167.953 22.0781C168.568 22.0781 169.151 21.9479 169.703 21.6875C170.266 21.4271 170.771 21.099 171.219 20.7031L171.312 20.7656ZM179.781 13.75C179.781 14.2812 179.714 14.8906 179.578 15.5781C179.453 16.2656 179.271 16.974 179.031 17.7031C178.792 18.4323 178.505 19.151 178.172 19.8594C177.849 20.5573 177.484 21.1823 177.078 21.7344C176.682 22.2865 176.255 22.7292 175.797 23.0625C175.339 23.4062 174.865 23.5781 174.375 23.5781C174.073 23.5781 173.792 23.4375 173.531 23.1562C173.271 22.875 173.036 22.5417 172.828 22.1562C172.63 21.7708 172.458 21.3802 172.312 20.9844C172.167 20.5885 172.052 20.2812 171.969 20.0625C171.75 19.4375 171.557 18.8125 171.391 18.1875C171.224 17.5625 171.068 16.9271 170.922 16.2812C170.911 16.2396 170.896 16.1615 170.875 16.0469C170.854 15.9219 170.823 15.7969 170.781 15.6719C170.75 15.5469 170.708 15.4375 170.656 15.3438C170.615 15.2396 170.573 15.1875 170.531 15.1875C170.438 15.1875 170.328 15.2031 170.203 15.2344C170.089 15.2656 169.974 15.3073 169.859 15.3594C169.745 15.401 169.63 15.4479 169.516 15.5C169.411 15.5521 169.323 15.599 169.25 15.6406L169.125 15.4844C169.25 15.3594 169.422 15.2135 169.641 15.0469C169.859 14.8802 170.089 14.7292 170.328 14.5938C170.568 14.4479 170.812 14.3281 171.062 14.2344C171.312 14.1302 171.531 14.0781 171.719 14.0781C171.969 14.0781 172.177 14.1875 172.344 14.4062C172.521 14.6146 172.672 14.901 172.797 15.2656C172.932 15.6198 173.052 16.0417 173.156 16.5312C173.271 17.0208 173.391 17.5365 173.516 18.0781C173.536 18.1615 173.578 18.3281 173.641 18.5781C173.703 18.8281 173.781 19.1198 173.875 19.4531C173.969 19.776 174.068 20.1198 174.172 20.4844C174.286 20.849 174.401 21.1823 174.516 21.4844C174.641 21.776 174.76 22.0208 174.875 22.2188C174.99 22.4167 175.099 22.5156 175.203 22.5156C175.495 22.5156 175.766 22.4115 176.016 22.2031C176.276 21.9844 176.516 21.6979 176.734 21.3438C176.964 20.9896 177.167 20.5938 177.344 20.1562C177.521 19.7083 177.672 19.2552 177.797 18.7969C177.922 18.3385 178.016 17.8958 178.078 17.4688C178.151 17.0417 178.188 16.6667 178.188 16.3438C178.188 15.7396 178.125 15.1406 178 14.5469C177.875 13.9427 177.677 13.4115 177.406 12.9531C177.146 12.4844 176.807 12.1198 176.391 11.8594C175.984 11.599 175.5 11.5104 174.938 11.5938L174.891 11.4531C175.214 11.3177 175.542 11.2135 175.875 11.1406C176.208 11.0677 176.542 11.0312 176.875 11.0312C177.771 11.0312 178.479 11.2552 179 11.7031C179.521 12.151 179.781 12.8333 179.781 13.75ZM190.844 20.7656C190.573 21.1615 190.245 21.5312 189.859 21.875C189.484 22.2188 189.068 22.5156 188.609 22.7656C188.161 23.0156 187.688 23.2135 187.188 23.3594C186.698 23.5052 186.203 23.5781 185.703 23.5781C184.995 23.5781 184.333 23.4844 183.719 23.2969C183.104 23.1198 182.568 22.8438 182.109 22.4688C181.651 22.0938 181.292 21.625 181.031 21.0625C180.771 20.4896 180.641 19.8229 180.641 19.0625C180.641 18.3125 180.776 17.6146 181.047 16.9688C181.328 16.3125 181.708 15.7448 182.188 15.2656C182.677 14.776 183.25 14.3906 183.906 14.1094C184.562 13.8281 185.266 13.6875 186.016 13.6875C186.37 13.6875 186.698 13.7396 187 13.8438C187.312 13.9375 187.583 14.0833 187.812 14.2812C188.042 14.4688 188.219 14.7031 188.344 14.9844C188.479 15.2656 188.547 15.5885 188.547 15.9531C188.547 16.3906 188.458 16.776 188.281 17.1094C188.104 17.4427 187.87 17.7344 187.578 17.9844C187.286 18.2344 186.953 18.4427 186.578 18.6094C186.214 18.776 185.828 18.9115 185.422 19.0156C185.026 19.1198 184.63 19.1979 184.234 19.25C183.849 19.2917 183.495 19.3125 183.172 19.3125H182.797C182.932 20.2604 183.307 20.9844 183.922 21.4844C184.536 21.9844 185.385 22.2344 186.469 22.2344C187.24 22.2344 187.99 22.099 188.719 21.8281C189.458 21.5573 190.125 21.1823 190.719 20.7031L190.844 20.7656ZM182.75 18.8438H183.141C183.516 18.8438 183.901 18.7865 184.297 18.6719C184.693 18.5469 185.047 18.3698 185.359 18.1406C185.682 17.901 185.948 17.6094 186.156 17.2656C186.365 16.9219 186.469 16.5312 186.469 16.0938C186.469 15.6667 186.375 15.3125 186.188 15.0312C186.01 14.75 185.698 14.6094 185.25 14.6094C184.792 14.6094 184.401 14.75 184.078 15.0312C183.766 15.3021 183.51 15.6406 183.312 16.0469C183.115 16.4427 182.969 16.8646 182.875 17.3125C182.792 17.75 182.75 18.1406 182.75 18.4844V18.8438ZM202.094 20.7656C201.906 21.1823 201.667 21.5573 201.375 21.8906C201.094 22.224 200.786 22.5104 200.453 22.75C200.12 22.9792 199.776 23.1562 199.422 23.2812C199.068 23.4167 198.729 23.4844 198.406 23.4844C197.802 23.4844 197.292 23.3802 196.875 23.1719C196.458 22.9635 196.12 22.6823 195.859 22.3281C195.599 21.974 195.411 21.5573 195.297 21.0781C195.182 20.599 195.125 20.0885 195.125 19.5469C195.125 19.1302 195.156 18.6979 195.219 18.25C195.281 17.8021 195.37 17.3698 195.484 16.9531C195.505 16.8906 195.526 16.8177 195.547 16.7344C195.568 16.6406 195.578 16.5625 195.578 16.5C195.578 16.4479 195.547 16.4062 195.484 16.375C195.307 16.3125 195.12 16.2552 194.922 16.2031C194.724 16.1406 194.526 16.0729 194.328 16C194.141 15.9271 193.958 15.8438 193.781 15.75C193.615 15.6562 193.469 15.5365 193.344 15.3906C193.333 16.0156 193.229 16.651 193.031 17.2969C192.833 17.9323 192.568 18.5469 192.234 19.1406C191.911 19.724 191.531 20.2708 191.094 20.7812C190.656 21.2917 190.193 21.7344 189.703 22.1094L189.547 21.9531C189.849 21.6198 190.125 21.224 190.375 20.7656C190.625 20.3073 190.839 19.8281 191.016 19.3281C191.193 18.8281 191.328 18.3229 191.422 17.8125C191.526 17.3021 191.578 16.8229 191.578 16.375C191.578 16.1458 191.557 15.9323 191.516 15.7344C191.474 15.526 191.427 15.3281 191.375 15.1406C191.333 14.9531 191.292 14.776 191.25 14.6094C191.208 14.4323 191.188 14.2552 191.188 14.0781C191.188 13.7865 191.281 13.5573 191.469 13.3906C191.656 13.224 191.896 13.1406 192.188 13.1406C192.344 13.1406 192.464 13.1875 192.547 13.2812C192.63 13.3646 192.703 13.4688 192.766 13.5938C192.828 13.7188 192.901 13.849 192.984 13.9844C193.068 14.1198 193.188 14.2344 193.344 14.3281C193.542 14.4427 193.792 14.526 194.094 14.5781C194.396 14.6302 194.714 14.6771 195.047 14.7188C195.38 14.7604 195.714 14.8021 196.047 14.8438C196.38 14.8854 196.677 14.9583 196.938 15.0625C197.208 15.1562 197.427 15.2917 197.594 15.4688C197.76 15.6354 197.844 15.8646 197.844 16.1562C197.844 16.3021 197.828 16.4479 197.797 16.5938C197.776 16.7292 197.74 16.8594 197.688 16.9844C197.562 17.4219 197.453 17.8698 197.359 18.3281C197.276 18.776 197.234 19.224 197.234 19.6719C197.234 20.0573 197.26 20.4115 197.312 20.7344C197.375 21.0469 197.484 21.3177 197.641 21.5469C197.797 21.776 198.005 21.9531 198.266 22.0781C198.526 22.2031 198.859 22.2656 199.266 22.2656C199.849 22.2656 200.359 22.125 200.797 21.8438C201.234 21.5521 201.62 21.1719 201.953 20.7031L202.094 20.7656ZM210.062 19.6406C210.062 20.1823 209.964 20.6927 209.766 21.1719C209.568 21.651 209.292 22.0677 208.938 22.4219C208.583 22.776 208.167 23.0573 207.688 23.2656C207.219 23.474 206.708 23.5781 206.156 23.5781C205.792 23.5781 205.432 23.5208 205.078 23.4062C204.724 23.2917 204.396 23.1302 204.094 22.9219C203.802 22.7031 203.547 22.4427 203.328 22.1406C203.109 21.8385 202.953 21.5052 202.859 21.1406L203.219 21.0469C203.49 21.3802 203.802 21.6562 204.156 21.875C204.521 22.0938 204.932 22.2031 205.391 22.2031C205.776 22.2031 206.13 22.1198 206.453 21.9531C206.786 21.7865 207.068 21.5677 207.297 21.2969C207.536 21.026 207.719 20.7135 207.844 20.3594C207.979 19.9948 208.047 19.625 208.047 19.25C208.047 18.8021 207.984 18.4323 207.859 18.1406C207.734 17.8385 207.568 17.5885 207.359 17.3906C207.161 17.1823 206.938 17.0052 206.688 16.8594C206.438 16.7031 206.182 16.5469 205.922 16.3906C205.672 16.2344 205.427 16.0573 205.188 15.8594C204.958 15.6615 204.76 15.4062 204.594 15.0938C204.583 15.7083 204.479 16.3542 204.281 17.0312C204.083 17.7083 203.812 18.3646 203.469 19C203.135 19.6354 202.75 20.2292 202.312 20.7812C201.875 21.3333 201.411 21.7969 200.922 22.1719L200.797 21.9531C201.13 21.599 201.422 21.1562 201.672 20.625C201.922 20.0938 202.125 19.5365 202.281 18.9531C202.448 18.3594 202.568 17.7656 202.641 17.1719C202.724 16.5781 202.766 16.0365 202.766 15.5469C202.766 15.2865 202.74 15.0312 202.688 14.7812C202.635 14.5312 202.609 14.2865 202.609 14.0469C202.609 13.7552 202.693 13.5312 202.859 13.375C203.036 13.2188 203.26 13.1406 203.531 13.1406C203.74 13.1406 203.906 13.1875 204.031 13.2812C204.156 13.375 204.271 13.5 204.375 13.6562C204.479 13.8021 204.583 13.974 204.688 14.1719C204.792 14.3594 204.922 14.5573 205.078 14.7656C205.245 14.9635 205.448 15.1615 205.688 15.3594C205.938 15.5469 206.255 15.7135 206.641 15.8594C207.089 16.026 207.516 16.2188 207.922 16.4375C208.339 16.6458 208.703 16.8958 209.016 17.1875C209.339 17.4792 209.594 17.8281 209.781 18.2344C209.969 18.6302 210.062 19.099 210.062 19.6406ZM218.844 14.8125C218.844 14.9271 218.802 15.0312 218.719 15.125C218.635 15.2083 218.536 15.25 218.422 15.25C218.328 15.25 218.229 15.224 218.125 15.1719C218.021 15.1094 217.901 15.0417 217.766 14.9688C217.641 14.8958 217.49 14.8333 217.312 14.7812C217.146 14.7188 216.953 14.6875 216.734 14.6875C216.224 14.6875 215.766 14.849 215.359 15.1719C214.964 15.4844 214.625 15.875 214.344 16.3438C214.073 16.8125 213.865 17.3125 213.719 17.8438C213.573 18.375 213.5 18.8542 213.5 19.2812C213.5 19.5833 213.526 19.8802 213.578 20.1719C213.63 20.4531 213.719 20.7135 213.844 20.9531C213.979 21.1823 214.161 21.3698 214.391 21.5156C214.62 21.651 214.911 21.7188 215.266 21.7188C215.641 21.7188 216 21.651 216.344 21.5156C216.688 21.3698 217.01 21.1823 217.312 20.9531C217.323 20.6198 217.375 20.2708 217.469 19.9062C217.573 19.5312 217.703 19.1667 217.859 18.8125C218.016 18.4479 218.193 18.1042 218.391 17.7812C218.599 17.4583 218.812 17.1719 219.031 16.9219L219.234 17.0469C219.12 17.401 219.036 17.7656 218.984 18.1406C218.932 18.5156 218.906 18.8854 218.906 19.25C218.906 19.625 218.938 19.9792 219 20.3125C219.062 20.6458 219.172 20.9375 219.328 21.1875C219.484 21.4271 219.698 21.6198 219.969 21.7656C220.24 21.901 220.589 21.9688 221.016 21.9688C221.536 21.9688 222.016 21.849 222.453 21.6094C222.891 21.3698 223.276 21.0677 223.609 20.7031L223.734 20.7656C223.547 21.1302 223.302 21.4792 223 21.8125C222.698 22.1458 222.359 22.4479 221.984 22.7188C221.62 22.9792 221.229 23.1875 220.812 23.3438C220.396 23.5 219.984 23.5781 219.578 23.5781C219.005 23.5781 218.536 23.4115 218.172 23.0781C217.807 22.7552 217.557 22.3438 217.422 21.8438C216.984 22.2812 216.495 22.651 215.953 22.9531C215.422 23.2448 214.859 23.3906 214.266 23.3906C213.828 23.3906 213.438 23.3073 213.094 23.1406C212.76 22.9844 212.479 22.7708 212.25 22.5C212.021 22.2292 211.844 21.9115 211.719 21.5469C211.604 21.1719 211.547 20.7812 211.547 20.375C211.547 19.9062 211.62 19.4271 211.766 18.9375C211.922 18.4375 212.13 17.9479 212.391 17.4688C212.661 16.9896 212.979 16.5365 213.344 16.1094C213.708 15.6823 214.104 15.3073 214.531 14.9844C214.969 14.6615 215.427 14.4062 215.906 14.2188C216.385 14.0312 216.875 13.9375 217.375 13.9375C217.49 13.9375 217.63 13.9531 217.797 13.9844C217.964 14.0052 218.125 14.0469 218.281 14.1094C218.438 14.1719 218.568 14.2604 218.672 14.375C218.786 14.4896 218.844 14.6354 218.844 14.8125ZM226.625 10.3906C226.625 10.599 226.578 10.8073 226.484 11.0156C226.391 11.224 226.266 11.4115 226.109 11.5781C225.964 11.7344 225.792 11.8646 225.594 11.9688C225.396 12.0729 225.193 12.125 224.984 12.125C224.714 12.125 224.495 12.0365 224.328 11.8594C224.172 11.6823 224.094 11.4583 224.094 11.1875C224.094 10.9792 224.141 10.776 224.234 10.5781C224.328 10.3698 224.448 10.1875 224.594 10.0312C224.75 9.875 224.922 9.75 225.109 9.65625C225.307 9.55208 225.51 9.5 225.719 9.5C225.99 9.5 226.208 9.58333 226.375 9.75C226.542 9.91667 226.625 10.1302 226.625 10.3906ZM231 20.7656C230.76 21.1615 230.474 21.526 230.141 21.8594C229.818 22.1823 229.458 22.4688 229.062 22.7188C228.677 22.9583 228.26 23.1458 227.812 23.2812C227.375 23.4167 226.922 23.4844 226.453 23.4844C225.87 23.4844 225.349 23.3854 224.891 23.1875C224.443 22.9896 224.062 22.7188 223.75 22.375C223.448 22.0208 223.214 21.6094 223.047 21.1406C222.891 20.6615 222.812 20.1406 222.812 19.5781C222.812 18.974 222.901 18.401 223.078 17.8594C223.255 17.3177 223.5 16.8125 223.812 16.3438C224.125 15.8646 224.49 15.4271 224.906 15.0312C225.333 14.6354 225.786 14.2812 226.266 13.9688L226.453 14.1094C225.943 14.7135 225.526 15.3906 225.203 16.1406C224.891 16.8906 224.734 17.6719 224.734 18.4844C224.734 18.9531 224.786 19.4062 224.891 19.8438C225.005 20.2708 225.177 20.651 225.406 20.9844C225.646 21.3177 225.948 21.5833 226.312 21.7812C226.677 21.9792 227.12 22.0781 227.641 22.0781C228.255 22.0781 228.839 21.9479 229.391 21.6875C229.953 21.4271 230.458 21.099 230.906 20.7031L231 20.7656ZM242.25 20.7656C242.062 21.1823 241.823 21.5573 241.531 21.8906C241.25 22.224 240.943 22.5104 240.609 22.75C240.276 22.9792 239.932 23.1562 239.578 23.2812C239.224 23.4167 238.885 23.4844 238.562 23.4844C237.958 23.4844 237.448 23.3802 237.031 23.1719C236.615 22.9635 236.276 22.6823 236.016 22.3281C235.755 21.974 235.568 21.5573 235.453 21.0781C235.339 20.599 235.281 20.0885 235.281 19.5469C235.281 19.1302 235.312 18.6979 235.375 18.25C235.438 17.8021 235.526 17.3698 235.641 16.9531C235.661 16.8906 235.682 16.8177 235.703 16.7344C235.724 16.6406 235.734 16.5625 235.734 16.5C235.734 16.4479 235.703 16.4062 235.641 16.375C235.464 16.3125 235.276 16.2552 235.078 16.2031C234.88 16.1406 234.682 16.0729 234.484 16C234.297 15.9271 234.115 15.8438 233.938 15.75C233.771 15.6562 233.625 15.5365 233.5 15.3906C233.49 16.0156 233.385 16.651 233.188 17.2969C232.99 17.9323 232.724 18.5469 232.391 19.1406C232.068 19.724 231.688 20.2708 231.25 20.7812C230.812 21.2917 230.349 21.7344 229.859 22.1094L229.703 21.9531C230.005 21.6198 230.281 21.224 230.531 20.7656C230.781 20.3073 230.995 19.8281 231.172 19.3281C231.349 18.8281 231.484 18.3229 231.578 17.8125C231.682 17.3021 231.734 16.8229 231.734 16.375C231.734 16.1458 231.714 15.9323 231.672 15.7344C231.63 15.526 231.583 15.3281 231.531 15.1406C231.49 14.9531 231.448 14.776 231.406 14.6094C231.365 14.4323 231.344 14.2552 231.344 14.0781C231.344 13.7865 231.438 13.5573 231.625 13.3906C231.812 13.224 232.052 13.1406 232.344 13.1406C232.5 13.1406 232.62 13.1875 232.703 13.2812C232.786 13.3646 232.859 13.4688 232.922 13.5938C232.984 13.7188 233.057 13.849 233.141 13.9844C233.224 14.1198 233.344 14.2344 233.5 14.3281C233.698 14.4427 233.948 14.526 234.25 14.5781C234.552 14.6302 234.87 14.6771 235.203 14.7188C235.536 14.7604 235.87 14.8021 236.203 14.8438C236.536 14.8854 236.833 14.9583 237.094 15.0625C237.365 15.1562 237.583 15.2917 237.75 15.4688C237.917 15.6354 238 15.8646 238 16.1562C238 16.3021 237.984 16.4479 237.953 16.5938C237.932 16.7292 237.896 16.8594 237.844 16.9844C237.719 17.4219 237.609 17.8698 237.516 18.3281C237.432 18.776 237.391 19.224 237.391 19.6719C237.391 20.0573 237.417 20.4115 237.469 20.7344C237.531 21.0469 237.641 21.3177 237.797 21.5469C237.953 21.776 238.161 21.9531 238.422 22.0781C238.682 22.2031 239.016 22.2656 239.422 22.2656C240.005 22.2656 240.516 22.125 240.953 21.8438C241.391 21.5521 241.776 21.1719 242.109 20.7031L242.25 20.7656ZM251.281 20.7656C251.01 21.1615 250.682 21.5312 250.297 21.875C249.922 22.2188 249.505 22.5156 249.047 22.7656C248.599 23.0156 248.125 23.2135 247.625 23.3594C247.135 23.5052 246.641 23.5781 246.141 23.5781C245.432 23.5781 244.771 23.4844 244.156 23.2969C243.542 23.1198 243.005 22.8438 242.547 22.4688C242.089 22.0938 241.729 21.625 241.469 21.0625C241.208 20.4896 241.078 19.8229 241.078 19.0625C241.078 18.3125 241.214 17.6146 241.484 16.9688C241.766 16.3125 242.146 15.7448 242.625 15.2656C243.115 14.776 243.688 14.3906 244.344 14.1094C245 13.8281 245.703 13.6875 246.453 13.6875C246.807 13.6875 247.135 13.7396 247.438 13.8438C247.75 13.9375 248.021 14.0833 248.25 14.2812C248.479 14.4688 248.656 14.7031 248.781 14.9844C248.917 15.2656 248.984 15.5885 248.984 15.9531C248.984 16.3906 248.896 16.776 248.719 17.1094C248.542 17.4427 248.307 17.7344 248.016 17.9844C247.724 18.2344 247.391 18.4427 247.016 18.6094C246.651 18.776 246.266 18.9115 245.859 19.0156C245.464 19.1198 245.068 19.1979 244.672 19.25C244.286 19.2917 243.932 19.3125 243.609 19.3125H243.234C243.37 20.2604 243.745 20.9844 244.359 21.4844C244.974 21.9844 245.823 22.2344 246.906 22.2344C247.677 22.2344 248.427 22.099 249.156 21.8281C249.896 21.5573 250.562 21.1823 251.156 20.7031L251.281 20.7656ZM243.188 18.8438H243.578C243.953 18.8438 244.339 18.7865 244.734 18.6719C245.13 18.5469 245.484 18.3698 245.797 18.1406C246.12 17.901 246.385 17.6094 246.594 17.2656C246.802 16.9219 246.906 16.5312 246.906 16.0938C246.906 15.6667 246.812 15.3125 246.625 15.0312C246.448 14.75 246.135 14.6094 245.688 14.6094C245.229 14.6094 244.839 14.75 244.516 15.0312C244.203 15.3021 243.948 15.6406 243.75 16.0469C243.552 16.4427 243.406 16.8646 243.312 17.3125C243.229 17.75 243.188 18.1406 243.188 18.4844V18.8438ZM272.469 20.7656C272.302 21.1094 272.094 21.4219 271.844 21.7031C271.594 21.974 271.312 22.2083 271 22.4062C270.688 22.5938 270.354 22.7396 270 22.8438C269.646 22.9479 269.276 23 268.891 23C268.078 23 267.385 22.8021 266.812 22.4062C266.25 22.0104 265.776 21.4948 265.391 20.8594C265.109 21.1719 264.797 21.4844 264.453 21.7969C264.12 22.099 263.76 22.3698 263.375 22.6094C263 22.8385 262.609 23.026 262.203 23.1719C261.797 23.3177 261.391 23.3906 260.984 23.3906C260.495 23.3906 260.057 23.2917 259.672 23.0938C259.286 22.8958 258.958 22.6354 258.688 22.3125C258.417 21.9792 258.208 21.6042 258.062 21.1875C257.917 20.7604 257.844 20.3177 257.844 19.8594C257.844 19.1719 257.995 18.4792 258.297 17.7812C258.609 17.0833 259.016 16.4531 259.516 15.8906C260.026 15.3177 260.609 14.8542 261.266 14.5C261.922 14.1458 262.604 13.9688 263.312 13.9688C263.521 13.9688 263.703 13.9896 263.859 14.0312V13.375C263.859 13.0729 263.87 12.6719 263.891 12.1719C263.911 11.6719 263.953 11.1198 264.016 10.5156C264.078 9.90104 264.156 9.26042 264.25 8.59375C264.354 7.91667 264.484 7.25 264.641 6.59375C264.807 5.92708 265 5.29688 265.219 4.70312C265.438 4.09896 265.693 3.57292 265.984 3.125C266.276 2.66667 266.609 2.30208 266.984 2.03125C267.359 1.76042 267.781 1.625 268.25 1.625C268.802 1.625 269.25 1.78646 269.594 2.10938C269.938 2.43229 270.208 2.83333 270.406 3.3125C270.604 3.78125 270.734 4.28125 270.797 4.8125C270.87 5.34375 270.906 5.81771 270.906 6.23438C270.906 6.77604 270.854 7.40625 270.75 8.125C270.646 8.83333 270.5 9.58854 270.312 10.3906C270.125 11.1823 269.901 11.9948 269.641 12.8281C269.38 13.6615 269.099 14.4635 268.797 15.2344C268.495 16.0052 268.167 16.724 267.812 17.3906C267.469 18.0469 267.12 18.6042 266.766 19.0625C266.901 19.4688 267.062 19.8438 267.25 20.1875C267.448 20.5312 267.677 20.8281 267.938 21.0781C268.198 21.3281 268.495 21.526 268.828 21.6719C269.161 21.8073 269.542 21.875 269.969 21.875C270.948 21.875 271.75 21.4844 272.375 20.7031L272.469 20.7656ZM266.062 12.0625C266.062 12.4375 266.062 12.875 266.062 13.375C266.062 13.8646 266.073 14.3854 266.094 14.9375C266.125 15.4896 266.172 16.0573 266.234 16.6406C266.307 17.2135 266.411 17.7708 266.547 18.3125C266.984 17.4688 267.385 16.5469 267.75 15.5469C268.115 14.5365 268.427 13.5052 268.688 12.4531C268.958 11.3906 269.167 10.3333 269.312 9.28125C269.458 8.22917 269.531 7.23438 269.531 6.29688C269.531 6.09896 269.521 5.8125 269.5 5.4375C269.479 5.0625 269.422 4.69271 269.328 4.32812C269.234 3.95312 269.094 3.63021 268.906 3.35938C268.719 3.07812 268.464 2.9375 268.141 2.9375C267.891 2.9375 267.667 3.05729 267.469 3.29688C267.271 3.52604 267.099 3.83854 266.953 4.23438C266.807 4.61979 266.682 5.0625 266.578 5.5625C266.484 6.0625 266.401 6.58333 266.328 7.125C266.266 7.66667 266.214 8.20312 266.172 8.73438C266.141 9.26562 266.115 9.76042 266.094 10.2188C266.083 10.6667 266.073 11.0573 266.062 11.3906C266.062 11.7135 266.062 11.9375 266.062 12.0625ZM262.125 21.6875C262.719 21.6875 263.266 21.5729 263.766 21.3438C264.276 21.1146 264.74 20.8125 265.156 20.4375C264.958 20.0521 264.786 19.6406 264.641 19.2031C264.505 18.7552 264.385 18.3073 264.281 17.8594C264.188 17.401 264.109 16.9427 264.047 16.4844C263.995 16.026 263.953 15.5833 263.922 15.1562C263.797 15.0208 263.641 14.9115 263.453 14.8281C263.266 14.7344 263.036 14.6875 262.766 14.6875C262.276 14.6875 261.839 14.8229 261.453 15.0938C261.078 15.3542 260.76 15.6875 260.5 16.0938C260.24 16.4896 260.042 16.9271 259.906 17.4062C259.771 17.875 259.703 18.3229 259.703 18.75C259.703 19.1458 259.745 19.526 259.828 19.8906C259.922 20.2448 260.068 20.5573 260.266 20.8281C260.464 21.0885 260.714 21.2969 261.016 21.4531C261.328 21.6094 261.698 21.6875 262.125 21.6875ZM281.656 20.7656C281.385 21.1615 281.057 21.5312 280.672 21.875C280.297 22.2188 279.88 22.5156 279.422 22.7656C278.974 23.0156 278.5 23.2135 278 23.3594C277.51 23.5052 277.016 23.5781 276.516 23.5781C275.807 23.5781 275.146 23.4844 274.531 23.2969C273.917 23.1198 273.38 22.8438 272.922 22.4688C272.464 22.0938 272.104 21.625 271.844 21.0625C271.583 20.4896 271.453 19.8229 271.453 19.0625C271.453 18.3125 271.589 17.6146 271.859 16.9688C272.141 16.3125 272.521 15.7448 273 15.2656C273.49 14.776 274.062 14.3906 274.719 14.1094C275.375 13.8281 276.078 13.6875 276.828 13.6875C277.182 13.6875 277.51 13.7396 277.812 13.8438C278.125 13.9375 278.396 14.0833 278.625 14.2812C278.854 14.4688 279.031 14.7031 279.156 14.9844C279.292 15.2656 279.359 15.5885 279.359 15.9531C279.359 16.3906 279.271 16.776 279.094 17.1094C278.917 17.4427 278.682 17.7344 278.391 17.9844C278.099 18.2344 277.766 18.4427 277.391 18.6094C277.026 18.776 276.641 18.9115 276.234 19.0156C275.839 19.1198 275.443 19.1979 275.047 19.25C274.661 19.2917 274.307 19.3125 273.984 19.3125H273.609C273.745 20.2604 274.12 20.9844 274.734 21.4844C275.349 21.9844 276.198 22.2344 277.281 22.2344C278.052 22.2344 278.802 22.099 279.531 21.8281C280.271 21.5573 280.938 21.1823 281.531 20.7031L281.656 20.7656ZM273.562 18.8438H273.953C274.328 18.8438 274.714 18.7865 275.109 18.6719C275.505 18.5469 275.859 18.3698 276.172 18.1406C276.495 17.901 276.76 17.6094 276.969 17.2656C277.177 16.9219 277.281 16.5312 277.281 16.0938C277.281 15.6667 277.188 15.3125 277 15.0312C276.823 14.75 276.51 14.6094 276.062 14.6094C275.604 14.6094 275.214 14.75 274.891 15.0312C274.578 15.3021 274.323 15.6406 274.125 16.0469C273.927 16.4427 273.781 16.8646 273.688 17.3125C273.604 17.75 273.562 18.1406 273.562 18.4844V18.8438ZM294.766 27.8906C294.766 28.2552 294.583 28.4375 294.219 28.4375C293.99 28.4375 293.766 28.3802 293.547 28.2656C293.339 28.151 293.146 28.0365 292.969 27.9219C292.917 27.8906 292.87 27.8542 292.828 27.8125C292.797 27.7812 292.76 27.7448 292.719 27.7031C292.052 27.7865 291.422 27.8542 290.828 27.9062C290.234 27.9583 289.729 27.9844 289.312 27.9844C289.031 27.9844 288.724 27.9688 288.391 27.9375C288.057 27.9167 287.745 27.849 287.453 27.7344C287.151 27.6302 286.901 27.4688 286.703 27.25C286.505 27.0312 286.406 26.724 286.406 26.3281C286.406 26.0365 286.5 25.7656 286.688 25.5156C286.865 25.2656 287.115 25.1406 287.438 25.1406C287.469 25.1406 287.505 25.1458 287.547 25.1562C287.589 25.1667 287.625 25.1719 287.656 25.1719C288.312 25.3177 289 25.4375 289.719 25.5312C290.438 25.6354 291.161 25.7188 291.891 25.7812C291.797 25.3438 291.729 24.8854 291.688 24.4062C291.646 23.9375 291.615 23.4792 291.594 23.0312C291.583 22.5833 291.578 22.1667 291.578 21.7812C291.589 21.3958 291.594 21.0781 291.594 20.8281C291.594 20.0677 291.604 19.2344 291.625 18.3281C291.646 17.4115 291.677 16.4583 291.719 15.4688C291.771 14.4688 291.833 13.4479 291.906 12.4062C291.99 11.3542 292.083 10.3125 292.188 9.28125C292.302 8.23958 292.432 7.22917 292.578 6.25C292.734 5.26042 292.911 4.32812 293.109 3.45312C292.224 3.57812 291.365 3.72917 290.531 3.90625C289.698 4.07292 288.932 4.26042 288.234 4.46875C288.172 4.48958 288.115 4.5 288.062 4.5C288.01 4.5 287.958 4.5 287.906 4.5C287.75 4.5 287.609 4.46354 287.484 4.39062C287.349 4.31771 287.24 4.22396 287.156 4.10938C287.073 3.99479 287.01 3.86458 286.969 3.71875C286.917 3.57292 286.891 3.42708 286.891 3.28125C286.891 2.96875 286.969 2.70833 287.125 2.5C287.271 2.29167 287.464 2.11979 287.703 1.98438C287.943 1.84896 288.214 1.75 288.516 1.6875C288.828 1.625 289.141 1.57812 289.453 1.54688C289.766 1.51562 290.062 1.5 290.344 1.5C290.635 1.5 290.891 1.5 291.109 1.5C291.432 1.5 291.807 1.51042 292.234 1.53125C292.661 1.54167 293.115 1.56771 293.594 1.60938C293.646 1.42188 293.703 1.24479 293.766 1.07812C293.828 0.901042 293.891 0.729167 293.953 0.5625L294.281 0.703125C294.24 0.911458 294.193 1.22917 294.141 1.65625C294.682 1.70833 295.234 1.77083 295.797 1.84375C296.359 1.90625 296.896 1.98958 297.406 2.09375C297.917 2.19792 298.385 2.31771 298.812 2.45312C299.24 2.57812 299.594 2.71875 299.875 2.875L299.719 3.125C299.458 3.09375 299.193 3.07812 298.922 3.07812C298.661 3.06771 298.406 3.0625 298.156 3.0625C297.531 3.0625 296.865 3.08854 296.156 3.14062C295.448 3.19271 294.719 3.26042 293.969 3.34375C293.917 4.04167 293.865 4.82812 293.812 5.70312C293.76 6.56771 293.714 7.49479 293.672 8.48438C293.641 9.47396 293.615 10.5 293.594 11.5625C293.573 12.625 293.562 13.6979 293.562 14.7812C293.562 15.8542 293.573 16.9167 293.594 17.9688C293.615 19.0208 293.651 20.026 293.703 20.9844C293.766 21.9427 293.839 22.8385 293.922 23.6719C294.016 24.5156 294.125 25.2604 294.25 25.9062C294.531 25.9167 294.807 25.9219 295.078 25.9219C295.359 25.9323 295.635 25.9375 295.906 25.9375C296.458 25.9375 297.016 25.9219 297.578 25.8906C298.141 25.8698 298.693 25.8021 299.234 25.6875L299.391 25.9375C299.172 26.0938 298.891 26.2396 298.547 26.375C298.214 26.5104 297.839 26.6406 297.422 26.7656C297.016 26.8906 296.573 27.0052 296.094 27.1094C295.625 27.224 295.146 27.3229 294.656 27.4062C294.688 27.4896 294.714 27.5677 294.734 27.6406C294.755 27.724 294.766 27.8073 294.766 27.8906ZM306.516 18.3906C306.516 19.1198 306.396 19.7969 306.156 20.4219C305.917 21.0469 305.578 21.5885 305.141 22.0469C304.703 22.5052 304.177 22.8646 303.562 23.125C302.958 23.3854 302.286 23.5156 301.547 23.5156C300.891 23.5156 300.297 23.3906 299.766 23.1406C299.245 22.901 298.797 22.5729 298.422 22.1562C298.047 21.7396 297.76 21.2552 297.562 20.7031C297.365 20.1406 297.266 19.5417 297.266 18.9062C297.266 18.375 297.339 17.8698 297.484 17.3906C297.641 16.9115 297.854 16.4688 298.125 16.0625C298.396 15.6458 298.719 15.2656 299.094 14.9219C299.469 14.5677 299.875 14.25 300.312 13.9688L300.5 14.1094C300.062 14.6198 299.719 15.1823 299.469 15.7969C299.219 16.4115 299.094 17.0625 299.094 17.75C299.094 18.25 299.167 18.7604 299.312 19.2812C299.469 19.7917 299.693 20.2604 299.984 20.6875C300.276 21.1146 300.641 21.4635 301.078 21.7344C301.516 22.0052 302.016 22.1406 302.578 22.1406C302.932 22.1406 303.266 22.0677 303.578 21.9219C303.891 21.776 304.161 21.5781 304.391 21.3281C304.63 21.0781 304.818 20.7969 304.953 20.4844C305.099 20.1615 305.172 19.8281 305.172 19.4844C305.172 19.151 305.12 18.8281 305.016 18.5156C304.922 18.1927 304.786 17.8958 304.609 17.625C304.432 17.3438 304.219 17.0938 303.969 16.875C303.719 16.6458 303.448 16.4583 303.156 16.3125C302.99 16.2292 302.828 16.1667 302.672 16.125C302.526 16.0833 302.365 16.0365 302.188 15.9844C302.115 15.974 302.036 15.9583 301.953 15.9375C301.87 15.9062 301.792 15.875 301.719 15.8438C301.646 15.8021 301.583 15.75 301.531 15.6875C301.479 15.625 301.453 15.5469 301.453 15.4531C301.453 15.2656 301.521 15.0938 301.656 14.9375C301.792 14.7812 301.953 14.6458 302.141 14.5312C302.328 14.4062 302.526 14.3125 302.734 14.25C302.943 14.1771 303.125 14.1406 303.281 14.1406C303.812 14.1406 304.281 14.276 304.688 14.5469C305.094 14.8177 305.432 15.1615 305.703 15.5781C305.974 15.9948 306.177 16.4531 306.312 16.9531C306.448 17.4531 306.516 17.9323 306.516 18.3906ZM315.219 14.8125C315.219 14.9271 315.177 15.0312 315.094 15.125C315.01 15.2083 314.911 15.25 314.797 15.25C314.703 15.25 314.604 15.224 314.5 15.1719C314.396 15.1094 314.276 15.0417 314.141 14.9688C314.016 14.8958 313.865 14.8333 313.688 14.7812C313.521 14.7188 313.328 14.6875 313.109 14.6875C312.599 14.6875 312.141 14.849 311.734 15.1719C311.339 15.4844 311 15.875 310.719 16.3438C310.448 16.8125 310.24 17.3125 310.094 17.8438C309.948 18.375 309.875 18.8542 309.875 19.2812C309.875 19.5833 309.901 19.8802 309.953 20.1719C310.005 20.4531 310.094 20.7135 310.219 20.9531C310.354 21.1823 310.536 21.3698 310.766 21.5156C310.995 21.651 311.286 21.7188 311.641 21.7188C312.016 21.7188 312.375 21.651 312.719 21.5156C313.062 21.3698 313.385 21.1823 313.688 20.9531C313.698 20.6198 313.75 20.2708 313.844 19.9062C313.948 19.5312 314.078 19.1667 314.234 18.8125C314.391 18.4479 314.568 18.1042 314.766 17.7812C314.974 17.4583 315.188 17.1719 315.406 16.9219L315.609 17.0469C315.495 17.401 315.411 17.7656 315.359 18.1406C315.307 18.5156 315.281 18.8854 315.281 19.25C315.281 19.625 315.312 19.9792 315.375 20.3125C315.438 20.6458 315.547 20.9375 315.703 21.1875C315.859 21.4271 316.073 21.6198 316.344 21.7656C316.615 21.901 316.964 21.9688 317.391 21.9688C317.911 21.9688 318.391 21.849 318.828 21.6094C319.266 21.3698 319.651 21.0677 319.984 20.7031L320.109 20.7656C319.922 21.1302 319.677 21.4792 319.375 21.8125C319.073 22.1458 318.734 22.4479 318.359 22.7188C317.995 22.9792 317.604 23.1875 317.188 23.3438C316.771 23.5 316.359 23.5781 315.953 23.5781C315.38 23.5781 314.911 23.4115 314.547 23.0781C314.182 22.7552 313.932 22.3438 313.797 21.8438C313.359 22.2812 312.87 22.651 312.328 22.9531C311.797 23.2448 311.234 23.3906 310.641 23.3906C310.203 23.3906 309.812 23.3073 309.469 23.1406C309.135 22.9844 308.854 22.7708 308.625 22.5C308.396 22.2292 308.219 21.9115 308.094 21.5469C307.979 21.1719 307.922 20.7812 307.922 20.375C307.922 19.9062 307.995 19.4271 308.141 18.9375C308.297 18.4375 308.505 17.9479 308.766 17.4688C309.036 16.9896 309.354 16.5365 309.719 16.1094C310.083 15.6823 310.479 15.3073 310.906 14.9844C311.344 14.6615 311.802 14.4062 312.281 14.2188C312.76 14.0312 313.25 13.9375 313.75 13.9375C313.865 13.9375 314.005 13.9531 314.172 13.9844C314.339 14.0052 314.5 14.0469 314.656 14.1094C314.812 14.1719 314.943 14.2604 315.047 14.375C315.161 14.4896 315.219 14.6354 315.219 14.8125ZM332.859 20.7656C332.661 21.1406 332.448 21.5 332.219 21.8438C332 22.1875 331.75 22.4896 331.469 22.75C331.188 23.0104 330.87 23.2188 330.516 23.375C330.161 23.5312 329.755 23.6094 329.297 23.6094C328.776 23.6094 328.328 23.4792 327.953 23.2188C327.578 22.9688 327.255 22.6354 326.984 22.2188C326.724 21.7917 326.51 21.3073 326.344 20.7656C326.188 20.224 326.057 19.6719 325.953 19.1094C325.849 18.5469 325.771 17.9948 325.719 17.4531C325.667 16.901 325.62 16.4062 325.578 15.9688C325.38 16.125 325.141 16.4271 324.859 16.875C324.578 17.3125 324.292 17.8281 324 18.4219C323.708 19.0156 323.427 19.6615 323.156 20.3594C322.896 21.0573 322.682 21.7448 322.516 22.4219C322.484 22.5677 322.432 22.7188 322.359 22.875C322.297 23.0312 322.214 23.1719 322.109 23.2969C322.016 23.4323 321.901 23.5417 321.766 23.625C321.63 23.7188 321.479 23.7656 321.312 23.7656C321.042 23.7656 320.844 23.6719 320.719 23.4844C320.604 23.2969 320.521 23.0833 320.469 22.8438C320.167 21.5208 319.953 20.2552 319.828 19.0469C319.714 17.8385 319.656 16.6302 319.656 15.4219C319.656 15.1302 319.703 14.8802 319.797 14.6719C319.901 14.4531 320.036 14.276 320.203 14.1406C320.37 13.9948 320.568 13.8906 320.797 13.8281C321.026 13.7552 321.266 13.7188 321.516 13.7188C321.547 13.7188 321.594 13.7188 321.656 13.7188C321.729 13.7188 321.797 13.7292 321.859 13.75C321.922 13.7604 321.974 13.7812 322.016 13.8125C322.057 13.8438 322.073 13.8854 322.062 13.9375C321.792 15.3021 321.661 16.6927 321.672 18.1094C321.682 19.5156 321.755 20.8698 321.891 22.1719C322.005 21.651 322.172 21.0625 322.391 20.4062C322.62 19.7396 322.88 19.0729 323.172 18.4062C323.474 17.7292 323.797 17.0885 324.141 16.4844C324.495 15.8698 324.854 15.3542 325.219 14.9375C325.396 14.7396 325.573 14.5729 325.75 14.4375C325.938 14.2917 326.167 14.2188 326.438 14.2188C326.594 14.2188 326.724 14.25 326.828 14.3125C326.932 14.375 327.016 14.4531 327.078 14.5469C327.151 14.6406 327.203 14.75 327.234 14.875C327.276 14.9896 327.307 15.1042 327.328 15.2188C327.38 15.5208 327.432 15.9115 327.484 16.3906C327.536 16.8698 327.599 17.3802 327.672 17.9219C327.755 18.4635 327.854 19.0104 327.969 19.5625C328.083 20.1042 328.229 20.599 328.406 21.0469C328.583 21.4844 328.797 21.8438 329.047 22.125C329.297 22.4062 329.594 22.5469 329.938 22.5469C330.219 22.5469 330.49 22.4948 330.75 22.3906C331.021 22.276 331.276 22.1354 331.516 21.9688C331.755 21.7917 331.979 21.5938 332.188 21.375C332.396 21.1458 332.583 20.9219 332.75 20.7031L332.859 20.7656ZM345.609 20.7656C345.411 21.1406 345.198 21.5 344.969 21.8438C344.75 22.1875 344.5 22.4896 344.219 22.75C343.938 23.0104 343.62 23.2188 343.266 23.375C342.911 23.5312 342.505 23.6094 342.047 23.6094C341.526 23.6094 341.078 23.4792 340.703 23.2188C340.328 22.9688 340.005 22.6354 339.734 22.2188C339.474 21.7917 339.26 21.3073 339.094 20.7656C338.938 20.224 338.807 19.6719 338.703 19.1094C338.599 18.5469 338.521 17.9948 338.469 17.4531C338.417 16.901 338.37 16.4062 338.328 15.9688C338.13 16.125 337.891 16.4271 337.609 16.875C337.328 17.3125 337.042 17.8281 336.75 18.4219C336.458 19.0156 336.177 19.6615 335.906 20.3594C335.646 21.0573 335.432 21.7448 335.266 22.4219C335.234 22.5677 335.182 22.7188 335.109 22.875C335.047 23.0312 334.964 23.1719 334.859 23.2969C334.766 23.4323 334.651 23.5417 334.516 23.625C334.38 23.7188 334.229 23.7656 334.062 23.7656C333.792 23.7656 333.594 23.6719 333.469 23.4844C333.354 23.2969 333.271 23.0833 333.219 22.8438C332.917 21.5208 332.703 20.2552 332.578 19.0469C332.464 17.8385 332.406 16.6302 332.406 15.4219C332.406 15.1302 332.453 14.8802 332.547 14.6719C332.651 14.4531 332.786 14.276 332.953 14.1406C333.12 13.9948 333.318 13.8906 333.547 13.8281C333.776 13.7552 334.016 13.7188 334.266 13.7188C334.297 13.7188 334.344 13.7188 334.406 13.7188C334.479 13.7188 334.547 13.7292 334.609 13.75C334.672 13.7604 334.724 13.7812 334.766 13.8125C334.807 13.8438 334.823 13.8854 334.812 13.9375C334.542 15.3021 334.411 16.6927 334.422 18.1094C334.432 19.5156 334.505 20.8698 334.641 22.1719C334.755 21.651 334.922 21.0625 335.141 20.4062C335.37 19.7396 335.63 19.0729 335.922 18.4062C336.224 17.7292 336.547 17.0885 336.891 16.4844C337.245 15.8698 337.604 15.3542 337.969 14.9375C338.146 14.7396 338.323 14.5729 338.5 14.4375C338.688 14.2917 338.917 14.2188 339.188 14.2188C339.344 14.2188 339.474 14.25 339.578 14.3125C339.682 14.375 339.766 14.4531 339.828 14.5469C339.901 14.6406 339.953 14.75 339.984 14.875C340.026 14.9896 340.057 15.1042 340.078 15.2188C340.13 15.5208 340.182 15.9115 340.234 16.3906C340.286 16.8698 340.349 17.3802 340.422 17.9219C340.505 18.4635 340.604 19.0104 340.719 19.5625C340.833 20.1042 340.979 20.599 341.156 21.0469C341.333 21.4844 341.547 21.8438 341.797 22.125C342.047 22.4062 342.344 22.5469 342.688 22.5469C342.969 22.5469 343.24 22.4948 343.5 22.3906C343.771 22.276 344.026 22.1354 344.266 21.9688C344.505 21.7917 344.729 21.5938 344.938 21.375C345.146 21.1458 345.333 20.9219 345.5 20.7031L345.609 20.7656ZM348.5 10.3906C348.5 10.599 348.453 10.8073 348.359 11.0156C348.266 11.224 348.141 11.4115 347.984 11.5781C347.839 11.7344 347.667 11.8646 347.469 11.9688C347.271 12.0729 347.068 12.125 346.859 12.125C346.589 12.125 346.37 12.0365 346.203 11.8594C346.047 11.6823 345.969 11.4583 345.969 11.1875C345.969 10.9792 346.016 10.776 346.109 10.5781C346.203 10.3698 346.323 10.1875 346.469 10.0312C346.625 9.875 346.797 9.75 346.984 9.65625C347.182 9.55208 347.385 9.5 347.594 9.5C347.865 9.5 348.083 9.58333 348.25 9.75C348.417 9.91667 348.5 10.1302 348.5 10.3906ZM352.875 20.7656C352.635 21.1615 352.349 21.526 352.016 21.8594C351.693 22.1823 351.333 22.4688 350.938 22.7188C350.552 22.9583 350.135 23.1458 349.688 23.2812C349.25 23.4167 348.797 23.4844 348.328 23.4844C347.745 23.4844 347.224 23.3854 346.766 23.1875C346.318 22.9896 345.938 22.7188 345.625 22.375C345.323 22.0208 345.089 21.6094 344.922 21.1406C344.766 20.6615 344.688 20.1406 344.688 19.5781C344.688 18.974 344.776 18.401 344.953 17.8594C345.13 17.3177 345.375 16.8125 345.688 16.3438C346 15.8646 346.365 15.4271 346.781 15.0312C347.208 14.6354 347.661 14.2812 348.141 13.9688L348.328 14.1094C347.818 14.7135 347.401 15.3906 347.078 16.1406C346.766 16.8906 346.609 17.6719 346.609 18.4844C346.609 18.9531 346.661 19.4062 346.766 19.8438C346.88 20.2708 347.052 20.651 347.281 20.9844C347.521 21.3177 347.823 21.5833 348.188 21.7812C348.552 21.9792 348.995 22.0781 349.516 22.0781C350.13 22.0781 350.714 21.9479 351.266 21.6875C351.828 21.4271 352.333 21.099 352.781 20.7031L352.875 20.7656Z" fill="#B7985F"/>
</svg>
